<?xml version="1.0" standalone="no"?>
<!DOCTYPE svg PUBLIC "-//W3C//DTD SVG 20010904//EN"
 "http://www.w3.org/TR/2001/REC-SVG-20010904/DTD/svg10.dtd">
<svg version="1.0" xmlns="http://www.w3.org/2000/svg"
 width="1280.000000pt" height="800.000000pt" viewBox="0 0 1280.000000 800.000000"
 preserveAspectRatio="xMidYMid meet">
<metadata>
Created by potrace 1.15, written by Peter Selinger 2001-2017
</metadata>
<g transform="translate(0.000000,800.000000) scale(0.100000,-0.100000)"
fill="#000000" stroke="none">
<path d="M0 7923 c1 -67 3 -76 14 -60 7 9 25 17 39 17 17 0 28 7 32 21 5 15
14 19 33 17 23 -3 35 -19 84 -113 63 -122 162 -360 160 -388 -1 -13 5 -16 24
-12 13 3 35 7 49 10 60 13 249 34 358 41 64 4 117 7 117 8 0 1 -26 54 -58 117
-63 124 -152 341 -152 371 0 22 1 22 -156 -2 -71 -11 -190 -23 -265 -27 -134
-6 -136 -6 -152 17 -15 22 -15 25 0 42 15 17 13 18 -55 18 l-72 0 0 -77z"/>
<path d="M821 7888 c76 -95 216 -294 233 -332 3 -6 11 -3 18 8 117 177 170
252 238 336 l81 100 -330 0 -330 0 90 -112z"/>
<path d="M1993 7982 c11 -12 13 -22 7 -32 -15 -23 -12 -30 14 -30 15 0 26 -7
29 -20 3 -13 14 -20 31 -20 16 0 30 -8 37 -22 l12 -23 10 23 c7 15 19 22 38
22 19 0 30 6 34 20 4 13 15 20 31 20 22 0 23 2 13 21 -8 15 -8 24 0 32 6 6 11
15 11 19 0 4 -64 8 -142 8 -134 0 -140 -1 -125 -18z"/>
<path d="M2860 7995 c0 -3 24 -34 53 -68 65 -77 195 -256 232 -319 15 -27 31
-50 35 -53 4 -3 30 30 56 73 42 67 168 238 250 340 l27 32 -327 0 c-179 0
-326 -2 -326 -5z"/>
<path d="M4110 7992 c0 -4 5 -13 12 -20 9 -9 9 -15 0 -24 -18 -18 -14 -28 12
-28 15 0 26 -7 29 -20 4 -14 14 -20 35 -20 20 0 32 -7 39 -22 l10 -23 12 23
c7 14 21 22 37 22 17 0 28 7 31 20 3 13 14 20 29 20 26 0 30 10 12 28 -9 9 -9
15 0 24 7 7 12 16 12 20 0 4 -61 8 -135 8 -74 0 -135 -4 -135 -8z"/>
<path d="M5009 7963 c73 -88 202 -264 246 -335 26 -43 51 -78 54 -78 3 1 27
36 53 79 54 89 141 209 222 305 l57 66 -332 0 -331 0 31 -37z"/>
<path d="M6240 7985 c10 -12 10 -21 2 -40 -11 -23 -10 -25 14 -25 17 0 28 -7
31 -20 4 -13 14 -20 31 -20 13 0 31 -8 38 -17 13 -17 15 -17 25 0 5 9 21 17
35 17 18 0 28 7 31 21 4 16 12 19 37 17 29 -3 36 -12 88 -113 64 -123 158
-352 158 -384 0 -18 5 -20 25 -16 14 3 36 7 50 10 60 13 249 34 358 41 64 4
117 7 117 8 0 1 -26 54 -58 117 -63 124 -152 341 -152 371 0 22 1 22 -156 -2
-71 -11 -190 -23 -265 -27 -134 -6 -136 -6 -152 17 -15 22 -15 25 0 42 15 17
10 18 -127 18 -127 0 -141 -2 -130 -15z"/>
<path d="M7191 7888 c76 -95 216 -294 233 -332 3 -6 11 -3 18 8 117 177 170
252 238 336 l81 100 -330 0 -330 0 90 -112z"/>
<path d="M8363 7982 c15 -17 15 -20 0 -42 -16 -23 -18 -23 -152 -17 -75 4
-181 14 -236 22 -193 30 -180 30 -182 6 -3 -35 -92 -250 -154 -370 -32 -63
-58 -115 -56 -116 1 -1 74 -7 162 -13 144 -11 322 -34 368 -48 12 -4 17 0 17
15 0 33 78 224 150 366 61 122 67 130 96 133 25 2 33 -1 37 -17 3 -14 13 -21
31 -21 16 0 30 -8 37 -22 l12 -23 10 23 c7 15 19 22 38 22 19 0 30 6 34 20 4
13 15 20 31 20 22 0 23 2 13 21 -8 15 -8 24 0 32 6 6 11 15 11 19 0 4 -64 8
-142 8 -135 0 -140 -1 -125 -18z"/>
<path d="M9230 7995 c0 -3 24 -34 53 -68 65 -77 195 -256 232 -319 15 -27 31
-50 35 -53 4 -3 30 30 56 73 42 67 168 238 250 340 l27 32 -327 0 c-179 0
-326 -2 -326 -5z"/>
<path d="M10480 7992 c0 -4 5 -13 12 -20 9 -9 9 -15 0 -24 -18 -18 -14 -28 12
-28 15 0 26 -7 29 -20 4 -14 14 -20 35 -20 20 0 32 -7 39 -22 l10 -23 12 23
c7 14 21 22 37 22 17 0 28 7 31 20 3 13 14 20 29 20 26 0 30 10 12 28 -9 9 -9
15 0 24 7 7 12 16 12 20 0 4 -61 8 -135 8 -74 0 -135 -4 -135 -8z"/>
<path d="M11379 7963 c70 -84 200 -263 245 -335 27 -43 52 -76 56 -73 4 3 20
26 35 53 37 63 167 242 232 319 29 34 53 65 53 68 0 3 -147 5 -326 5 l-326 0
31 -37z"/>
<path d="M12600 7992 c0 -4 5 -13 11 -19 8 -8 8 -17 0 -32 -10 -19 -9 -21 13
-21 16 0 27 -7 31 -20 4 -14 15 -20 34 -20 19 0 31 -7 38 -22 l10 -23 12 23
c6 12 21 22 31 22 18 0 20 7 20 60 l0 60 -100 0 c-55 0 -100 -4 -100 -8z"/>
<path d="M1423 7951 c-3 -35 -92 -250 -154 -370 -32 -63 -58 -115 -56 -116 1
-1 74 -7 162 -13 144 -11 322 -34 368 -48 12 -4 17 0 17 15 0 32 78 223 150
367 l65 131 -135 6 c-74 4 -180 14 -235 22 -193 30 -180 30 -182 6z"/>
<path d="M2660 7949 c-63 -10 -177 -21 -252 -25 -76 -4 -138 -8 -138 -9 0 -1
25 -49 55 -106 71 -136 166 -374 158 -395 -5 -12 -2 -15 13 -11 43 14 307 47
420 53 l121 7 -53 101 c-56 108 -164 364 -164 390 0 19 -9 19 -160 -5z"/>
<path d="M3544 7947 c-3 -36 -83 -233 -150 -363 l-61 -121 121 -7 c111 -6 376
-39 418 -52 13 -4 16 -1 12 9 -7 20 76 227 150 372 33 66 62 123 64 126 1 3
-59 9 -135 12 -76 4 -196 16 -267 27 -158 25 -151 25 -152 -3z"/>
<path d="M4785 7949 c-60 -10 -173 -21 -251 -25 l-141 -7 61 -121 c72 -141
148 -329 150 -369 1 -25 4 -27 26 -22 63 16 287 44 403 51 70 3 126 10 125 13
-2 3 -31 60 -64 126 -71 139 -157 351 -149 365 8 13 -30 11 -160 -11z"/>
<path d="M5670 7956 c0 -30 -88 -243 -153 -370 l-62 -123 120 -7 c108 -6 375
-39 416 -52 12 -3 17 2 17 18 0 33 86 243 154 378 32 63 58 115 58 116 0 0
-60 4 -132 8 -116 5 -175 12 -375 42 -36 6 -43 4 -43 -10z"/>
<path d="M9030 7949 c-63 -10 -177 -21 -253 -25 -76 -4 -136 -10 -135 -13 2
-4 28 -56 59 -116 66 -129 152 -338 152 -372 0 -17 4 -22 16 -19 41 13 308 46
417 52 l121 7 -53 101 c-56 108 -164 364 -164 390 0 19 -9 19 -160 -5z"/>
<path d="M9914 7947 c-3 -36 -83 -233 -150 -363 l-61 -121 121 -7 c111 -6 376
-39 418 -52 13 -4 16 -1 12 10 -8 20 74 222 150 371 33 66 62 123 64 126 1 3
-59 9 -135 12 -76 4 -196 16 -267 27 -158 25 -151 25 -152 -3z"/>
<path d="M11155 7949 c-60 -10 -173 -21 -251 -25 l-140 -7 72 -146 c81 -164
148 -336 139 -358 -4 -12 0 -14 22 -8 65 16 288 44 406 51 70 3 126 10 125 13
-2 3 -31 60 -64 126 -71 139 -157 351 -149 365 8 13 -30 11 -160 -11z"/>
<path d="M12040 7954 c0 -26 -108 -282 -164 -390 l-53 -101 121 -7 c113 -6
377 -39 420 -53 15 -4 18 -1 13 11 -8 21 87 259 158 395 30 57 55 105 55 106
0 1 -62 5 -137 8 -76 4 -196 16 -267 27 -154 24 -146 24 -146 4z"/>
<path d="M0 7375 l0 -459 52 84 c61 101 109 167 196 275 36 44 69 85 74 91 6
8 -10 34 -45 75 -86 103 -144 182 -212 290 l-65 102 0 -458z"/>
<path d="M2105 7805 c-66 -107 -156 -235 -229 -325 l-85 -104 30 -36 c71 -85
209 -271 253 -344 l49 -78 31 52 c41 71 187 271 247 341 27 31 49 60 49 63 0
4 -39 54 -86 113 -71 88 -180 243 -230 329 -10 17 -12 16 -29 -11z"/>
<path d="M4215 7783 c-42 -73 -131 -197 -217 -305 -43 -53 -78 -99 -78 -102 0
-4 37 -52 83 -109 69 -85 190 -258 232 -332 9 -15 16 -9 50 46 57 94 120 181
211 295 l81 100 -84 103 c-46 57 -118 156 -160 220 -42 64 -80 120 -83 124 -4
5 -20 -13 -35 -40z"/>
<path d="M6325 7762 c-46 -78 -166 -242 -238 -325 -57 -66 -62 -49 49 -182 66
-80 224 -310 224 -326 0 -19 17 -8 29 19 22 48 123 194 209 302 47 58 89 110
94 116 6 8 -9 33 -45 75 -79 94 -172 222 -225 310 -26 43 -49 78 -52 78 -3 1
-23 -30 -45 -67z"/>
<path d="M8475 7805 c-66 -107 -156 -235 -229 -325 l-85 -104 30 -36 c71 -85
209 -271 253 -344 l49 -78 31 52 c41 71 187 271 247 341 27 31 49 60 49 63 0
4 -39 54 -86 113 -71 88 -180 243 -230 329 -10 17 -12 16 -29 -11z"/>
<path d="M10585 7783 c-42 -73 -131 -197 -217 -305 -43 -53 -78 -99 -78 -102
0 -4 38 -53 83 -109 68 -84 181 -246 232 -332 9 -15 16 -8 50 46 57 94 120
181 211 295 l81 100 -84 103 c-46 57 -118 156 -160 220 -42 64 -80 120 -83
124 -4 5 -20 -13 -35 -40z"/>
<path d="M12714 7798 c-32 -61 -136 -210 -220 -314 -46 -57 -84 -106 -84 -110
0 -3 22 -32 49 -63 60 -70 206 -270 247 -341 l31 -52 31 51 32 51 0 356 0 355
-26 45 c-34 58 -40 60 -60 22z"/>
<path d="M1045 7510 c-5 -16 -12 -19 -31 -14 -20 5 -26 2 -31 -15 -4 -15 -13
-21 -35 -21 -30 0 -30 0 -15 -24 14 -21 14 -26 2 -36 -19 -16 -19 -34 0 -50
11 -9 13 -16 5 -24 -18 -18 -12 -38 10 -31 15 5 22 0 30 -20 8 -22 15 -26 34
-21 19 5 26 1 31 -14 3 -11 10 -20 15 -20 5 0 12 9 15 20 5 15 12 19 30 14 20
-5 27 -1 36 20 10 20 17 24 36 20 25 -7 30 5 11 24 -10 10 -10 17 1 34 10 17
11 25 0 45 -10 18 -10 26 -1 35 19 19 14 28 -13 28 -14 0 -29 8 -35 21 -9 15
-18 19 -35 15 -18 -5 -25 -1 -30 14 -3 11 -10 20 -15 20 -5 0 -12 -9 -15 -20z"/>
<path d="M3172 7513 c-8 -15 -18 -19 -37 -15 -21 3 -27 0 -32 -17 -3 -14 -13
-21 -29 -21 -26 0 -29 -7 -15 -29 6 -9 5 -21 -2 -33 -9 -14 -9 -23 1 -38 9
-15 10 -26 2 -40 -15 -27 -13 -33 10 -27 13 3 24 -3 35 -20 11 -17 22 -22 35
-18 13 4 22 -1 31 -16 11 -22 12 -22 26 -4 7 11 23 20 36 20 13 0 26 9 32 22
7 17 15 21 32 17 26 -7 28 -2 13 26 -7 14 -7 25 2 39 9 15 9 23 -1 35 -9 11
-10 20 -2 35 15 28 14 31 -12 31 -12 0 -28 9 -35 21 -7 11 -21 19 -32 17 -10
-2 -25 6 -33 16 -14 19 -15 19 -25 -1z"/>
<path d="M5290 7511 c-6 -12 -17 -17 -29 -14 -13 3 -24 -2 -33 -16 -7 -12 -23
-21 -35 -21 -25 0 -29 -10 -11 -28 9 -9 9 -17 -1 -35 -11 -20 -10 -28 0 -45
11 -17 11 -24 1 -34 -19 -19 -14 -31 11 -24 17 4 25 0 32 -17 7 -16 18 -21 37
-20 20 1 29 -4 34 -19 l6 -21 17 21 c11 15 23 20 38 16 18 -5 25 -1 33 21 8
20 15 25 30 20 14 -4 20 -2 20 9 0 8 -5 18 -10 21 -7 4 -5 14 5 28 13 18 13
24 1 42 -9 14 -11 27 -5 36 14 22 11 29 -15 29 -16 0 -26 7 -29 21 -5 17 -11
20 -31 17 -19 -4 -27 0 -31 13 -8 24 -22 24 -35 0z"/>
<path d="M7415 7510 c-5 -16 -12 -19 -31 -14 -20 5 -26 2 -31 -15 -4 -15 -13
-21 -35 -21 -30 0 -30 0 -15 -24 14 -21 14 -26 2 -36 -19 -16 -19 -34 0 -50
11 -9 13 -16 5 -24 -18 -18 -12 -38 10 -31 15 5 22 0 30 -20 8 -22 15 -26 34
-21 19 5 26 1 31 -14 3 -11 10 -20 15 -20 5 0 12 9 15 20 5 15 12 19 30 14 20
-5 27 -1 36 20 10 20 17 24 36 20 25 -7 30 5 11 24 -10 10 -10 17 1 34 10 17
11 25 0 45 -10 18 -10 26 -1 35 19 19 14 28 -13 28 -14 0 -29 8 -35 21 -9 15
-18 19 -35 15 -18 -5 -25 -1 -30 14 -3 11 -10 20 -15 20 -5 0 -12 -9 -15 -20z"/>
<path d="M9542 7513 c-8 -15 -18 -19 -37 -15 -21 3 -27 0 -32 -17 -3 -14 -13
-21 -29 -21 -26 0 -29 -7 -15 -29 6 -9 5 -21 -2 -33 -9 -14 -9 -23 1 -38 9
-15 10 -26 2 -40 -15 -27 -13 -33 10 -27 13 3 24 -3 35 -20 11 -17 22 -22 35
-18 13 4 22 -1 31 -16 11 -22 12 -22 26 -4 7 11 23 20 36 20 13 0 26 9 32 22
7 17 15 21 32 17 26 -7 28 -2 13 26 -7 14 -7 25 2 39 9 15 9 23 -1 35 -9 11
-10 20 -2 35 15 28 14 31 -12 31 -12 0 -28 9 -35 21 -7 11 -21 19 -32 17 -10
-2 -25 6 -33 16 -14 19 -15 19 -25 -1z"/>
<path d="M11661 7513 c-7 -14 -17 -19 -30 -16 -13 3 -24 -2 -33 -16 -7 -12
-23 -21 -35 -21 -25 0 -29 -10 -11 -28 9 -9 9 -17 -1 -35 -11 -20 -10 -28 0
-45 11 -17 11 -24 1 -34 -19 -19 -14 -31 11 -24 17 4 25 0 32 -17 6 -13 19
-22 32 -22 13 0 29 -9 36 -20 14 -18 15 -18 26 4 9 15 18 20 31 16 13 -4 24 1
35 18 11 17 22 23 35 20 23 -6 25 0 10 27 -8 14 -7 25 2 40 10 15 10 24 1 38
-7 12 -8 24 -2 33 14 22 11 29 -15 29 -16 0 -26 7 -29 21 -4 15 -12 20 -31 17
-16 -2 -30 4 -39 16 -14 19 -15 19 -26 -1z"/>
<path d="M360 7330 c0 -33 -83 -236 -151 -371 -33 -64 -59 -118 -59 -121 0 -3
64 -8 143 -11 78 -4 200 -16 271 -27 71 -11 130 -20 132 -20 2 0 4 9 4 21 0
29 103 278 161 388 27 52 48 95 47 96 -2 1 -70 7 -152 14 -137 10 -318 33
-373 47 -19 5 -23 2 -23 -16z"/>
<path d="M1700 7340 c-53 -12 -272 -38 -388 -46 -56 -4 -101 -9 -100 -13 2 -3
27 -53 57 -111 68 -132 163 -368 155 -382 -5 -8 7 -9 37 -4 192 31 251 38 375
43 l142 6 -53 101 c-61 115 -165 365 -165 395 0 22 -6 23 -60 11z"/>
<path d="M2484 7328 c-3 -36 -70 -201 -142 -348 -37 -74 -68 -138 -70 -141 -1
-3 62 -9 140 -12 123 -5 252 -20 376 -43 25 -5 32 -3 32 10 0 30 91 248 155
374 l63 122 -28 0 c-96 0 -389 32 -500 55 -21 5 -25 1 -26 -17z"/>
<path d="M3820 7339 c-76 -15 -269 -37 -381 -45 l-107 -6 58 -112 c64 -123
152 -335 154 -373 1 -23 4 -24 41 -18 189 30 248 37 373 42 78 3 141 9 140 12
-2 4 -29 56 -60 117 -69 135 -161 361 -154 380 6 16 1 16 -64 3z"/>
<path d="M4606 7337 c9 -25 -116 -330 -185 -445 -17 -29 -31 -54 -31 -56 0 -2
64 -6 143 -9 125 -5 184 -12 376 -43 32 -5 42 -4 37 4 -9 16 80 241 153 383
l59 117 -111 7 c-103 6 -338 35 -415 51 -27 5 -31 4 -26 -9z"/>
<path d="M5880 7329 c-58 -9 -178 -23 -266 -30 l-161 -12 34 -59 c45 -76 122
-251 159 -358 16 -47 29 -86 30 -88 0 -1 59 7 130 18 71 11 193 23 272 27 78
3 142 7 142 9 0 1 -27 56 -60 121 -69 138 -152 338 -152 371 0 12 -6 21 -12
21 -6 -1 -58 -10 -116 -20z"/>
<path d="M6730 7330 c0 -33 -83 -236 -151 -371 -33 -64 -59 -119 -59 -122 0
-4 40 -7 90 -7 79 0 338 -28 428 -46 28 -6 32 -4 32 15 0 41 88 246 208 482 1
3 -66 11 -150 18 -140 11 -318 33 -375 47 -19 5 -23 2 -23 -16z"/>
<path d="M8070 7340 c-53 -12 -272 -38 -388 -46 -56 -4 -101 -9 -100 -13 2 -3
27 -53 57 -111 68 -132 163 -368 155 -382 -5 -8 7 -9 37 -4 192 31 251 38 375
43 l142 6 -54 101 c-58 110 -164 366 -164 397 0 20 -6 21 -60 9z"/>
<path d="M8854 7342 c10 -16 -59 -192 -138 -352 -39 -80 -72 -148 -74 -151 -1
-3 62 -9 140 -12 123 -5 252 -20 376 -43 25 -5 32 -3 32 10 0 30 91 248 155
374 l63 122 -28 0 c-98 0 -391 33 -504 56 -18 4 -26 2 -22 -4z"/>
<path d="M10195 7340 c-70 -15 -277 -39 -386 -46 l-106 -6 62 -122 c68 -134
147 -327 149 -364 1 -22 4 -23 41 -17 189 30 248 37 373 42 78 3 141 9 140 12
-2 4 -29 56 -60 117 -69 135 -161 361 -154 380 6 15 0 16 -59 4z"/>
<path d="M10976 7337 c9 -25 -116 -330 -185 -445 -17 -29 -31 -54 -31 -56 0
-2 64 -6 143 -9 125 -5 184 -12 376 -43 32 -5 42 -4 37 4 -9 16 80 241 153
383 l59 117 -111 7 c-103 6 -338 35 -415 51 -27 5 -31 4 -26 -9z"/>
<path d="M12315 7340 c-70 -15 -277 -39 -386 -46 l-106 -6 63 -122 c63 -124
154 -342 154 -372 0 -13 7 -15 33 -10 123 23 252 38 375 43 78 3 142 7 142 7
0 1 -28 58 -63 126 -69 138 -149 331 -151 367 -1 25 -1 25 -61 13z"/>
<path d="M3146 7148 c-49 -84 -146 -218 -228 -317 l-67 -80 57 -68 c71 -85
200 -262 237 -325 15 -27 30 -50 34 -52 4 -3 44 50 88 117 45 67 117 167 162
222 44 55 79 105 77 111 -2 6 -42 58 -88 115 -74 92 -153 204 -215 307 l-20
33 -37 -63z"/>
<path d="M5256 7128 c-41 -69 -163 -235 -252 -345 l-26 -33 74 -92 c89 -110
160 -209 213 -295 21 -35 41 -63 44 -63 3 1 27 36 53 79 54 89 141 209 222
304 l56 66 -91 113 c-73 92 -161 216 -234 331 -8 13 -19 1 -59 -65z"/>
<path d="M9516 7148 c-49 -84 -146 -218 -228 -317 l-67 -80 57 -68 c71 -85
200 -262 237 -325 15 -27 30 -50 34 -52 4 -3 44 50 88 117 45 67 117 167 162
222 44 55 79 105 77 111 -2 6 -42 58 -88 115 -74 92 -153 204 -215 307 l-20
33 -37 -63z"/>
<path d="M11626 7128 c-42 -70 -161 -233 -252 -346 l-27 -32 60 -73 c81 -98
160 -207 217 -299 26 -43 52 -76 56 -73 4 3 20 26 35 53 37 63 166 240 237
325 l57 69 -52 61 c-96 114 -200 259 -272 381 -8 14 -18 3 -59 -66z"/>
<path d="M982 7086 c-40 -62 -113 -162 -162 -224 l-90 -111 91 -113 c76 -95
216 -294 233 -332 3 -6 11 -3 18 8 117 177 170 252 238 336 l81 100 -78 98
c-87 108 -176 232 -217 305 -16 26 -31 47 -34 47 -4 -1 -40 -52 -80 -114z"/>
<path d="M7352 7086 c-40 -62 -113 -162 -162 -224 l-90 -111 91 -113 c76 -95
216 -294 233 -332 3 -6 11 -3 18 8 117 177 170 252 238 336 l81 100 -78 98
c-87 108 -176 232 -217 305 -16 26 -31 47 -34 47 -4 -1 -40 -52 -80 -114z"/>
<path d="M1 6755 c0 -135 2 -157 13 -142 7 9 25 17 39 17 17 0 28 7 32 20 4
13 15 20 31 20 24 0 24 1 10 22 -14 19 -14 24 -1 38 16 18 11 50 -7 50 -6 0
-3 11 6 25 16 24 16 25 -8 25 -16 0 -27 7 -31 20 -4 14 -15 20 -34 20 -19 0
-31 7 -39 23 -8 17 -11 -16 -11 -138z"/>
<path d="M2111 6892 c-7 -14 -21 -22 -37 -22 -17 0 -28 -7 -31 -20 -3 -13 -14
-20 -29 -20 -26 0 -30 -10 -12 -28 9 -9 7 -16 -7 -32 -17 -18 -17 -21 -2 -38
11 -12 13 -22 7 -32 -15 -23 -12 -30 14 -30 15 0 26 -7 29 -20 3 -13 14 -20
31 -20 16 0 30 -8 37 -22 l12 -23 10 23 c7 15 19 22 38 22 19 0 30 6 34 20 4
13 15 20 31 20 22 0 23 3 14 20 -8 14 -7 25 2 40 10 16 10 24 0 40 -9 15 -10
26 -2 40 9 17 8 20 -14 20 -16 0 -27 7 -31 20 -4 14 -15 20 -34 20 -19 0 -31
7 -38 22 l-10 23 -12 -23z"/>
<path d="M4236 6892 c-6 -16 -15 -22 -38 -22 -21 0 -31 -6 -35 -20 -4 -13 -14
-20 -30 -20 -21 0 -22 -3 -13 -20 8 -14 7 -25 -2 -40 -10 -16 -10 -24 0 -41
10 -15 11 -24 3 -32 -17 -17 -13 -27 13 -27 15 0 26 -7 29 -20 4 -14 14 -20
35 -20 20 0 32 -7 39 -22 l10 -23 12 23 c7 14 21 22 37 22 17 0 28 7 31 20 3
13 14 20 29 20 26 0 30 10 13 27 -8 8 -7 17 3 32 11 17 11 25 0 42 -10 15 -11
24 -3 32 17 17 13 27 -13 27 -15 0 -26 7 -29 20 -3 13 -14 20 -30 20 -14 0
-31 9 -39 22 l-15 23 -7 -23z"/>
<path d="M6356 6892 c-5 -16 -15 -22 -36 -22 -20 0 -31 -6 -35 -20 -4 -13 -15
-20 -32 -20 -22 0 -24 -2 -13 -15 11 -13 11 -20 0 -39 -9 -18 -9 -29 -1 -45 9
-15 9 -27 1 -41 -9 -18 -8 -20 16 -20 17 0 28 -6 31 -20 4 -13 14 -20 31 -20
13 0 31 -8 38 -17 13 -17 15 -17 25 0 5 9 21 17 34 17 14 0 29 9 35 21 8 14
19 19 38 17 23 -3 35 -18 84 -113 65 -124 158 -352 158 -385 0 -16 5 -20 18
-16 62 19 386 56 488 56 44 0 54 -4 67 -24 14 -21 14 -26 2 -36 -19 -16 -19
-34 0 -50 11 -9 13 -16 5 -24 -17 -17 -12 -35 10 -29 15 4 22 -2 30 -22 8 -22
15 -26 34 -21 19 5 26 1 31 -14 3 -11 10 -20 15 -20 5 0 12 9 15 20 5 15 12
19 30 14 20 -5 27 -1 37 20 7 16 18 26 28 24 20 -4 23 2 15 25 -4 9 -2 24 5
32 11 13 10 20 0 41 -11 19 -11 27 -2 36 19 19 14 28 -13 28 -14 0 -29 8 -35
21 -9 15 -18 19 -35 15 -18 -5 -25 -1 -30 14 -3 11 -10 20 -15 20 -5 0 -12 -9
-15 -20 -5 -16 -12 -19 -31 -14 -20 5 -26 2 -31 -15 -4 -15 -13 -21 -34 -21
-23 0 -34 9 -56 43 -58 92 -193 408 -193 452 0 22 -1 22 -72 8 -115 -22 -315
-43 -405 -43 -73 0 -84 2 -97 22 -14 19 -14 24 -1 38 16 18 11 50 -7 50 -6 0
-3 11 6 25 16 24 16 25 -8 25 -15 0 -30 8 -36 20 -6 11 -21 20 -34 20 -13 0
-30 10 -38 22 l-15 23 -7 -23z"/>
<path d="M8481 6892 c-7 -14 -21 -22 -37 -22 -17 0 -28 -7 -31 -20 -3 -13 -14
-20 -29 -20 -26 0 -30 -10 -12 -28 9 -9 7 -16 -7 -32 -17 -18 -17 -21 -2 -38
11 -12 13 -22 7 -32 -15 -23 -12 -30 14 -30 15 0 26 -7 29 -20 3 -13 14 -20
31 -20 16 0 30 -8 37 -22 l12 -23 10 23 c7 15 19 22 38 22 19 0 30 6 34 20 4
13 15 20 31 20 22 0 23 3 14 20 -8 14 -7 25 2 40 10 16 10 24 0 40 -9 15 -10
26 -2 40 9 17 8 20 -14 20 -16 0 -27 7 -31 20 -4 14 -15 20 -34 20 -19 0 -31
7 -38 22 l-10 23 -12 -23z"/>
<path d="M10606 6892 c-6 -16 -15 -22 -38 -22 -21 0 -31 -6 -35 -20 -4 -13
-14 -20 -30 -20 -21 0 -22 -3 -13 -20 8 -14 7 -25 -2 -40 -10 -16 -10 -24 0
-41 10 -15 11 -24 3 -32 -17 -17 -13 -27 13 -27 15 0 26 -7 29 -20 4 -14 14
-20 35 -20 20 0 32 -7 39 -22 l10 -23 12 23 c7 14 21 22 37 22 17 0 28 7 31
20 3 13 14 20 29 20 26 0 30 10 13 27 -8 8 -7 17 3 32 11 17 11 25 0 42 -10
15 -11 24 -3 32 17 17 13 27 -13 27 -15 0 -26 7 -29 20 -3 13 -14 20 -30 20
-14 0 -31 9 -39 22 l-15 23 -7 -23z"/>
<path d="M12726 6892 c-5 -16 -15 -22 -36 -22 -20 0 -31 -6 -35 -20 -4 -13
-15 -20 -31 -20 -22 0 -23 -3 -14 -20 8 -14 7 -25 -2 -40 -10 -16 -10 -24 0
-40 9 -15 10 -26 2 -40 -9 -17 -8 -20 14 -20 16 0 27 -7 31 -20 4 -14 15 -20
34 -20 19 0 31 -7 38 -22 l10 -23 12 23 c6 12 21 22 31 22 19 0 20 7 20 120 0
111 -1 120 -19 120 -10 0 -25 10 -33 22 l-15 23 -7 -23z"/>
<path d="M7793 6705 c0 -33 -88 -246 -154 -374 -32 -63 -58 -115 -56 -116 1
-1 74 -7 162 -13 144 -11 322 -34 368 -48 12 -4 17 0 17 15 0 33 78 223 150
369 l67 132 -72 0 c-93 0 -265 17 -386 39 l-96 17 0 -21z"/>
<path d="M574 6705 c-97 -18 -272 -35 -356 -35 -37 0 -68 -2 -68 -5 0 -3 28
-60 61 -127 69 -137 153 -343 151 -371 -1 -12 4 -16 16 -13 62 19 387 56 488
56 44 0 54 -4 67 -24 14 -21 14 -26 2 -36 -19 -16 -19 -34 0 -50 11 -9 13 -16
5 -24 -18 -18 -12 -38 10 -31 15 5 22 0 30 -20 8 -22 15 -26 34 -21 19 5 26 1
31 -14 3 -11 10 -20 15 -20 5 0 12 9 15 20 5 15 12 19 30 14 20 -5 27 -1 37
21 9 21 17 25 35 20 25 -6 30 4 11 23 -9 9 -9 17 1 35 11 20 10 28 0 45 -11
17 -11 24 -1 34 19 19 14 28 -13 28 -14 0 -29 8 -35 21 -9 15 -18 19 -35 15
-18 -5 -25 -1 -30 14 -3 11 -10 20 -15 20 -5 0 -12 -9 -15 -20 -5 -16 -12 -19
-31 -14 -20 5 -26 2 -31 -15 -4 -15 -13 -21 -34 -21 -23 0 -34 9 -56 43 -55
87 -193 406 -193 447 0 24 -19 24 -126 5z"/>
<path d="M1423 6701 c-3 -35 -92 -250 -154 -370 -32 -63 -58 -115 -56 -116 1
-1 74 -7 162 -13 144 -11 322 -34 368 -48 12 -4 17 0 17 15 0 32 78 223 150
367 l65 131 -135 6 c-74 4 -180 14 -235 22 -193 30 -180 30 -182 6z"/>
<path d="M2660 6699 c-63 -10 -177 -21 -252 -25 -76 -4 -138 -8 -138 -9 0 -1
25 -49 55 -106 71 -136 166 -374 158 -395 -5 -12 -2 -15 13 -11 44 14 308 47
420 53 l121 7 -53 101 c-56 108 -164 364 -164 390 0 19 -9 19 -160 -5z"/>
<path d="M3544 6699 c-3 -37 -82 -231 -150 -365 l-61 -121 126 -8 c117 -6 339
-34 404 -50 22 -6 26 -4 22 8 -8 20 74 226 149 372 33 66 62 123 64 126 1 3
-59 9 -135 12 -76 4 -183 14 -238 22 -194 30 -180 30 -181 4z"/>
<path d="M4780 6699 c-63 -10 -176 -21 -251 -25 l-136 -7 61 -121 c72 -141
148 -329 150 -369 1 -23 5 -27 21 -23 64 16 231 38 373 48 89 7 161 15 160 18
-2 3 -31 59 -64 125 -71 139 -157 351 -149 365 8 13 -27 11 -165 -11z"/>
<path d="M5670 6704 c0 -29 -89 -243 -152 -368 l-63 -123 120 -7 c108 -6 375
-39 416 -52 12 -3 17 2 17 18 0 33 86 243 154 378 32 63 58 115 58 116 0 0
-60 4 -132 7 -73 4 -193 16 -266 27 -160 24 -152 24 -152 4z"/>
<path d="M9030 6699 c-63 -10 -177 -21 -253 -25 -76 -4 -136 -10 -135 -13 2
-4 28 -56 59 -116 66 -129 152 -338 152 -372 0 -17 4 -22 16 -19 42 13 309 46
417 52 l121 7 -53 101 c-56 108 -164 364 -164 390 0 19 -9 19 -160 -5z"/>
<path d="M9914 6699 c-3 -38 -83 -233 -150 -365 l-61 -121 126 -8 c117 -6 339
-34 404 -50 22 -6 26 -4 21 8 -8 21 73 222 150 372 33 66 62 123 64 126 1 3
-59 9 -135 12 -76 4 -183 14 -238 22 -194 30 -180 30 -181 4z"/>
<path d="M11150 6699 c-63 -10 -176 -21 -251 -25 l-135 -7 72 -146 c81 -164
148 -336 139 -358 -4 -12 0 -14 17 -10 66 17 232 38 376 49 89 7 161 15 160
18 -2 3 -31 59 -64 125 -71 139 -157 351 -149 365 8 13 -27 11 -165 -11z"/>
<path d="M12040 6704 c0 -26 -108 -282 -164 -390 l-53 -101 121 -7 c112 -6
376 -39 420 -53 15 -4 18 -1 13 11 -8 21 87 259 158 395 30 57 55 105 55 106
0 1 -60 5 -132 8 -73 4 -194 16 -268 27 -162 24 -150 24 -150 4z"/>
<path d="M0 6125 l0 -459 52 84 c61 101 109 167 196 275 36 44 69 85 74 91 6
8 -10 34 -45 75 -86 103 -144 182 -212 290 l-65 102 0 -458z"/>
<path d="M2105 6555 c-66 -107 -156 -235 -229 -325 l-85 -104 30 -36 c71 -85
209 -271 253 -344 l49 -78 31 52 c41 71 187 271 247 341 27 31 49 60 49 63 0
4 -39 54 -86 113 -71 88 -180 243 -230 329 -10 17 -12 16 -29 -11z"/>
<path d="M4215 6533 c-42 -73 -131 -197 -217 -305 -43 -53 -78 -99 -78 -102 0
-4 38 -53 83 -109 68 -84 181 -246 232 -332 9 -15 16 -8 50 46 57 94 120 181
211 295 l81 100 -84 103 c-46 57 -118 156 -160 220 -42 64 -80 120 -83 124 -4
5 -20 -13 -35 -40z"/>
<path d="M6325 6512 c-46 -78 -166 -242 -238 -325 -57 -66 -62 -49 49 -182 66
-80 224 -310 224 -326 0 -19 17 -8 29 19 22 48 123 194 209 302 47 58 89 110
94 116 6 8 -9 33 -45 75 -79 94 -172 222 -225 310 -26 43 -49 78 -52 78 -3 1
-23 -30 -45 -67z"/>
<path d="M8475 6555 c-66 -107 -156 -235 -229 -325 l-85 -104 30 -36 c71 -85
209 -271 253 -344 l49 -78 31 52 c41 71 187 271 247 341 27 31 49 60 49 63 0
4 -39 54 -86 113 -71 88 -180 243 -230 329 -10 17 -12 16 -29 -11z"/>
<path d="M10585 6533 c-42 -73 -131 -197 -217 -305 -43 -53 -78 -99 -78 -102
0 -4 38 -53 83 -109 68 -84 181 -246 232 -332 9 -15 16 -8 50 46 57 94 120
181 211 295 l81 100 -84 103 c-46 57 -118 156 -160 220 -42 64 -80 120 -83
124 -4 5 -20 -13 -35 -40z"/>
<path d="M12714 6548 c-32 -61 -136 -210 -220 -314 -46 -57 -84 -106 -84 -110
0 -3 22 -32 49 -63 60 -70 206 -270 247 -341 l31 -52 31 51 32 51 0 356 0 355
-26 45 c-34 58 -40 60 -60 22z"/>
<path d="M3172 6263 c-8 -15 -18 -19 -37 -15 -21 3 -27 0 -32 -17 -3 -14 -13
-21 -29 -21 -26 0 -29 -7 -15 -29 6 -9 5 -21 -2 -33 -9 -14 -9 -23 1 -38 9
-15 10 -26 2 -40 -14 -27 -13 -32 9 -25 13 4 23 -2 35 -20 12 -18 23 -24 36
-20 13 4 22 -1 31 -16 11 -22 12 -22 26 -3 8 10 24 19 36 19 13 0 26 9 32 23
8 17 16 21 33 17 25 -6 27 -2 12 25 -7 14 -7 25 2 39 9 15 9 23 -1 35 -9 11
-10 20 -2 35 15 28 14 31 -12 31 -12 0 -28 9 -35 21 -7 11 -21 19 -32 17 -10
-2 -25 6 -33 16 -14 19 -15 19 -25 -1z"/>
<path d="M5290 6261 c-6 -12 -17 -17 -29 -14 -13 3 -24 -2 -33 -16 -7 -12 -23
-21 -35 -21 -25 0 -29 -10 -11 -28 9 -9 9 -17 -1 -35 -11 -20 -10 -28 0 -45
11 -17 11 -24 1 -34 -19 -19 -14 -29 11 -23 16 4 25 0 32 -17 7 -17 18 -22 37
-21 20 1 29 -4 34 -19 6 -21 6 -21 24 2 9 12 22 20 28 16 16 -10 39 3 45 26 4
15 11 18 26 13 15 -4 21 -2 21 9 0 8 -4 18 -10 21 -6 4 -4 15 5 29 13 19 13
25 1 42 -10 13 -11 25 -5 35 14 22 11 29 -15 29 -16 0 -26 7 -29 21 -5 17 -11
20 -31 17 -19 -4 -27 0 -31 13 -8 24 -22 24 -35 0z"/>
<path d="M9542 6263 c-8 -15 -18 -19 -37 -15 -21 3 -27 0 -32 -17 -3 -14 -13
-21 -29 -21 -27 0 -28 -3 -14 -30 7 -13 7 -21 0 -25 -14 -8 -13 -55 1 -55 6 0
9 -6 6 -12 -21 -51 -21 -51 0 -44 15 5 25 0 37 -19 12 -18 23 -24 36 -20 13 4
22 -1 31 -16 11 -22 12 -22 26 -3 8 10 24 19 36 19 13 0 26 9 32 23 8 17 16
21 33 17 25 -6 27 -2 12 25 -7 14 -7 25 2 39 9 15 9 23 -1 35 -9 11 -10 20 -2
35 15 28 14 31 -12 31 -12 0 -28 9 -35 21 -7 11 -21 19 -32 17 -10 -2 -25 6
-33 16 -14 19 -15 19 -25 -1z"/>
<path d="M11661 6263 c-7 -14 -17 -19 -30 -16 -13 3 -24 -2 -33 -16 -7 -12
-23 -21 -35 -21 -25 0 -29 -10 -11 -28 9 -9 9 -17 -1 -35 -11 -20 -10 -28 0
-45 11 -17 11 -24 1 -34 -19 -19 -14 -29 11 -23 16 4 24 0 32 -17 6 -14 19
-23 32 -23 12 0 28 -9 36 -19 14 -19 15 -19 26 3 9 15 18 20 31 16 13 -4 24 2
36 20 12 18 22 24 35 20 22 -7 23 -2 9 25 -8 14 -7 25 2 40 10 15 10 24 1 38
-7 12 -8 24 -2 33 14 22 11 29 -15 29 -16 0 -26 7 -29 21 -4 15 -12 20 -31 17
-16 -2 -30 4 -39 16 -14 19 -15 19 -26 -1z"/>
<path d="M360 6080 c0 -33 -83 -236 -151 -371 -33 -64 -59 -118 -59 -121 0 -3
64 -8 143 -11 125 -6 191 -13 365 -42 39 -7 42 -6 42 14 0 31 102 278 161 390
27 52 48 95 47 96 -2 2 -70 8 -152 14 -136 10 -317 33 -373 47 -19 5 -23 2
-23 -16z"/>
<path d="M1729 6096 c-8 -8 -302 -45 -412 -51 -59 -4 -107 -10 -105 -13 2 -4
27 -54 57 -112 68 -132 163 -368 155 -382 -5 -8 7 -9 37 -4 178 30 241 37 370
43 l147 6 -53 101 c-61 115 -165 365 -165 395 0 19 -19 29 -31 17z"/>
<path d="M2484 6078 c-3 -36 -70 -201 -142 -348 -37 -74 -68 -138 -70 -141 -1
-3 62 -9 140 -12 79 -4 201 -16 272 -27 153 -24 147 -24 140 -6 -8 20 78 231
151 374 l63 122 -28 0 c-96 0 -389 32 -500 55 -21 5 -25 1 -26 -17z"/>
<path d="M3820 6089 c-76 -15 -269 -37 -381 -45 l-107 -6 58 -112 c64 -123
152 -335 154 -373 1 -23 4 -24 41 -18 181 29 248 36 373 42 78 3 141 9 140 12
-2 4 -29 56 -60 117 -69 135 -161 361 -154 380 6 16 1 16 -64 3z"/>
<path d="M4606 6087 c9 -25 -117 -330 -185 -445 -17 -29 -31 -54 -31 -56 0 -2
64 -6 143 -9 125 -6 191 -13 376 -43 32 -5 42 -4 37 4 -9 16 80 241 154 385
l59 117 -32 0 c-96 1 -426 38 -505 57 -17 4 -21 2 -16 -10z"/>
<path d="M5945 6090 c-70 -15 -277 -39 -387 -46 l-106 -6 35 -59 c45 -77 122
-252 159 -359 16 -47 29 -86 30 -88 0 -1 59 7 130 18 71 11 193 23 272 27 78
3 142 7 142 9 0 1 -27 56 -60 121 -69 138 -152 338 -152 371 -1 24 -2 24 -63
12z"/>
<path d="M6730 6079 c0 -32 -83 -236 -151 -370 -33 -64 -59 -118 -59 -121 0
-3 64 -8 143 -11 125 -6 191 -13 365 -42 38 -7 42 -6 42 14 0 32 77 221 147
361 34 68 61 125 60 126 -1 1 -70 7 -154 13 -133 10 -278 29 -365 47 -24 5
-28 2 -28 -17z"/>
<path d="M8099 6096 c-8 -8 -302 -45 -412 -51 -59 -4 -107 -10 -105 -13 2 -4
27 -54 57 -112 68 -132 163 -368 155 -382 -5 -8 7 -9 37 -4 178 30 241 37 370
43 l147 6 -54 101 c-58 110 -164 366 -164 397 0 17 -19 26 -31 15z"/>
<path d="M8854 6092 c10 -16 -58 -191 -138 -352 -39 -80 -72 -148 -74 -151 -1
-3 62 -9 140 -12 79 -4 201 -16 272 -27 153 -24 147 -24 140 -6 -8 20 78 231
151 374 l63 122 -32 0 c-96 1 -425 38 -505 57 -16 4 -22 2 -17 -5z"/>
<path d="M10190 6089 c-75 -15 -269 -37 -381 -45 l-106 -6 62 -122 c68 -134
147 -327 149 -364 1 -22 4 -23 41 -17 181 29 248 36 373 42 78 3 141 9 140 12
-2 4 -29 56 -60 117 -69 135 -161 361 -154 380 6 16 1 16 -64 3z"/>
<path d="M10976 6087 c9 -25 -117 -330 -185 -445 -17 -29 -31 -54 -31 -56 0
-2 64 -6 143 -9 125 -5 184 -12 376 -43 32 -5 42 -4 37 4 -9 16 80 241 154
385 l59 117 -32 0 c-96 1 -426 38 -505 57 -17 4 -21 2 -16 -10z"/>
<path d="M12315 6090 c-70 -15 -277 -39 -386 -46 l-106 -6 63 -122 c73 -142
158 -352 150 -372 -7 -18 -13 -18 140 6 71 11 193 23 272 27 78 3 142 7 142 7
0 1 -28 58 -63 126 -69 138 -149 331 -151 367 -1 25 -1 25 -61 13z"/>
<path d="M3146 5898 c-49 -84 -146 -218 -228 -317 l-67 -80 57 -68 c71 -85
200 -262 237 -325 15 -27 31 -50 35 -53 4 -3 29 29 56 72 54 86 170 244 233
317 23 27 40 54 38 61 -3 6 -43 59 -89 116 -74 92 -153 204 -215 307 l-20 33
-37 -63z"/>
<path d="M5256 5878 c-41 -69 -163 -235 -252 -345 l-26 -33 74 -92 c89 -110
160 -209 213 -295 21 -35 41 -63 44 -63 3 1 27 36 53 79 54 89 141 209 222
304 l56 66 -91 113 c-74 92 -154 206 -234 331 -8 13 -19 1 -59 -65z"/>
<path d="M9516 5898 c-49 -84 -146 -218 -228 -317 l-67 -80 57 -68 c71 -85
200 -262 237 -325 15 -27 30 -50 34 -52 4 -3 44 50 88 117 45 67 117 167 162
222 44 55 79 105 77 111 -2 6 -42 58 -88 115 -74 92 -153 204 -215 307 l-20
33 -37 -63z"/>
<path d="M11626 5878 c-42 -70 -161 -233 -252 -346 l-27 -32 60 -73 c81 -98
160 -207 217 -299 26 -43 52 -76 56 -73 4 3 20 26 35 53 37 63 166 240 237
325 l57 69 -52 61 c-96 114 -200 259 -272 381 -8 14 -18 3 -59 -66z"/>
<path d="M982 5836 c-40 -62 -113 -162 -162 -224 l-90 -111 91 -113 c76 -95
216 -294 233 -332 3 -6 11 -3 18 8 117 177 170 252 238 336 l81 100 -78 98
c-87 108 -176 232 -217 305 -16 26 -31 47 -34 47 -4 -1 -40 -52 -80 -114z"/>
<path d="M7352 5836 c-40 -62 -113 -162 -162 -224 l-90 -111 91 -113 c76 -95
216 -294 233 -332 3 -6 11 -3 18 8 117 177 170 252 238 336 l81 100 -78 98
c-87 108 -176 232 -217 305 -16 26 -31 47 -34 47 -4 -1 -40 -52 -80 -114z"/>
<path d="M1 5505 c0 -135 2 -157 13 -142 7 9 25 17 39 17 17 0 28 7 32 21 5
15 14 19 33 17 23 -3 35 -19 84 -113 63 -122 162 -360 160 -388 -1 -13 5 -16
26 -11 15 3 37 7 50 10 60 12 249 33 355 40 64 4 117 7 117 8 0 1 -26 54 -58
117 -63 124 -152 341 -152 371 0 22 1 22 -156 -2 -71 -11 -190 -23 -265 -27
-134 -6 -136 -6 -152 17 -15 21 -15 26 -2 40 16 18 11 50 -7 50 -6 0 -3 11 6
25 16 24 16 25 -8 25 -16 0 -27 7 -31 20 -4 14 -15 20 -34 20 -19 0 -31 7 -39
23 -8 17 -11 -16 -11 -138z"/>
<path d="M2111 5642 c-7 -14 -21 -22 -37 -22 -17 0 -28 -7 -31 -20 -3 -13 -14
-20 -29 -20 -26 0 -30 -10 -12 -28 9 -9 7 -16 -7 -32 -17 -18 -17 -21 -2 -38
11 -12 13 -22 7 -32 -15 -23 -12 -30 14 -30 15 0 26 -7 29 -20 3 -13 14 -20
31 -20 16 0 30 -8 37 -22 l12 -23 10 23 c7 15 19 22 38 22 19 0 30 6 34 20 4
13 15 20 31 20 22 0 23 3 14 20 -8 14 -7 25 2 40 10 16 10 24 0 40 -9 15 -10
26 -2 40 9 17 8 20 -14 20 -16 0 -27 7 -31 20 -4 14 -15 20 -34 20 -19 0 -31
7 -38 22 l-10 23 -12 -23z"/>
<path d="M4236 5642 c-6 -16 -15 -22 -38 -22 -21 0 -31 -6 -35 -20 -4 -13 -14
-20 -30 -20 -21 0 -22 -3 -13 -20 8 -14 7 -25 -2 -40 -10 -16 -10 -24 0 -41
10 -15 11 -24 3 -32 -17 -17 -13 -27 13 -27 15 0 26 -7 29 -20 4 -14 14 -20
35 -20 20 0 32 -7 39 -22 l10 -23 12 23 c7 14 21 22 37 22 17 0 28 7 31 20 3
13 14 20 29 20 26 0 30 10 13 27 -8 8 -7 17 3 32 11 17 11 25 0 42 -10 15 -11
24 -3 32 17 17 13 27 -13 27 -15 0 -26 7 -29 20 -3 13 -14 20 -30 20 -14 0
-31 9 -39 22 l-15 23 -7 -23z"/>
<path d="M6356 5642 c-5 -16 -15 -22 -36 -22 -20 0 -31 -6 -35 -20 -4 -13 -15
-20 -31 -20 -22 0 -23 -2 -14 -21 9 -15 8 -24 -1 -35 -9 -12 -9 -20 1 -38 9
-18 9 -29 1 -45 -11 -19 -9 -21 15 -21 17 0 28 -6 31 -20 4 -13 14 -20 31 -20
13 0 31 -8 38 -17 13 -17 15 -17 25 0 5 9 21 17 35 17 18 0 28 7 31 21 4 16
12 19 37 17 29 -3 36 -12 88 -113 64 -123 158 -352 158 -384 0 -22 -2 -22 73
-6 61 13 248 34 360 41 64 4 117 7 117 8 0 1 -26 54 -58 117 -63 124 -152 341
-152 371 0 22 1 22 -156 -2 -71 -11 -190 -23 -265 -27 -134 -6 -136 -6 -152
17 -15 21 -15 26 -2 40 16 18 11 50 -7 50 -6 0 -3 11 6 25 16 24 16 25 -10 25
-17 0 -28 6 -31 20 -4 14 -14 20 -33 20 -17 0 -33 8 -42 22 l-15 23 -7 -23z"/>
<path d="M8481 5642 c-7 -14 -21 -22 -37 -22 -17 0 -28 -7 -31 -20 -3 -13 -14
-20 -29 -20 -26 0 -30 -10 -12 -28 9 -9 7 -16 -7 -32 -17 -19 -17 -21 -2 -38
15 -17 15 -20 0 -42 -16 -23 -18 -23 -152 -17 -75 4 -181 14 -236 22 -193 30
-180 30 -182 6 -3 -35 -92 -250 -154 -370 -32 -63 -58 -115 -56 -116 1 -1 74
-7 162 -13 144 -11 322 -34 368 -48 12 -4 17 0 17 15 0 33 78 224 150 366 61
122 67 130 96 133 25 2 33 -1 37 -17 3 -14 13 -21 31 -21 16 0 30 -8 37 -22
l12 -23 10 23 c7 15 19 22 38 22 19 0 30 6 34 20 4 13 15 20 31 20 22 0 23 3
14 20 -8 14 -7 25 2 40 10 16 10 24 0 40 -9 15 -10 26 -2 40 9 17 8 20 -14 20
-16 0 -27 7 -31 20 -4 14 -15 20 -34 20 -19 0 -31 7 -38 22 l-10 23 -12 -23z"/>
<path d="M10606 5642 c-6 -16 -15 -22 -38 -22 -21 0 -31 -6 -35 -20 -4 -13
-14 -20 -30 -20 -21 0 -22 -3 -13 -20 8 -14 7 -25 -2 -40 -10 -16 -10 -24 0
-41 10 -15 11 -24 3 -32 -17 -17 -13 -27 13 -27 15 0 26 -7 29 -20 4 -14 14
-20 35 -20 20 0 32 -7 39 -22 l10 -23 12 23 c7 14 21 22 37 22 17 0 28 7 31
20 3 13 14 20 29 20 26 0 30 10 13 27 -8 8 -7 17 3 32 11 17 11 25 0 42 -10
15 -11 24 -3 32 17 17 13 27 -13 27 -15 0 -26 7 -29 20 -3 13 -14 20 -30 20
-14 0 -31 9 -39 22 l-15 23 -7 -23z"/>
<path d="M12726 5642 c-5 -16 -15 -22 -36 -22 -20 0 -31 -6 -35 -20 -4 -13
-15 -20 -31 -20 -22 0 -23 -3 -14 -20 8 -14 7 -25 -2 -40 -10 -16 -10 -24 0
-40 9 -15 10 -26 2 -40 -9 -17 -8 -20 14 -20 16 0 27 -7 31 -20 4 -14 15 -20
34 -20 19 0 31 -7 38 -22 l10 -23 12 23 c6 12 21 22 31 22 19 0 20 7 20 120 0
111 -1 120 -19 120 -10 0 -25 10 -33 22 l-15 23 -7 -23z"/>
<path d="M1423 5451 c-3 -35 -92 -250 -154 -370 -32 -63 -58 -115 -56 -116 1
-1 74 -7 162 -13 144 -11 322 -34 368 -48 12 -4 17 0 17 15 0 32 78 223 150
367 l65 131 -135 6 c-74 4 -180 14 -235 22 -193 30 -180 30 -182 6z"/>
<path d="M2660 5449 c-63 -10 -177 -21 -252 -25 -76 -4 -138 -8 -138 -9 0 -1
25 -49 55 -106 71 -136 166 -374 158 -395 -5 -12 -2 -15 13 -11 43 14 307 47
420 53 l121 7 -53 101 c-56 108 -164 364 -164 390 0 19 -9 19 -160 -5z"/>
<path d="M3544 5447 c-3 -36 -83 -233 -150 -363 l-61 -121 121 -7 c111 -6 376
-39 418 -52 13 -4 16 -1 12 9 -7 20 76 227 150 372 33 66 62 123 64 126 1 3
-59 9 -135 12 -76 4 -196 16 -267 27 -158 25 -151 25 -152 -3z"/>
<path d="M4785 5449 c-60 -10 -173 -21 -251 -25 l-141 -7 61 -121 c72 -141
148 -329 150 -369 1 -25 4 -27 26 -22 63 16 287 44 403 51 70 3 126 10 125 13
-2 3 -31 60 -64 126 -71 139 -157 351 -149 365 8 13 -30 11 -160 -11z"/>
<path d="M5670 5456 c0 -30 -88 -243 -153 -370 l-62 -123 120 -7 c108 -6 375
-39 416 -52 12 -3 17 2 17 18 0 33 86 243 154 378 32 63 58 115 58 116 0 0
-60 4 -132 8 -116 5 -175 12 -375 42 -36 6 -43 4 -43 -10z"/>
<path d="M9030 5449 c-63 -10 -177 -21 -253 -25 -76 -4 -136 -10 -135 -13 2
-4 28 -56 59 -116 66 -129 152 -338 152 -372 0 -17 4 -22 16 -19 41 13 308 46
417 52 l121 7 -53 101 c-56 108 -164 364 -164 390 0 19 -9 19 -160 -5z"/>
<path d="M9914 5447 c-3 -36 -83 -233 -150 -363 l-61 -121 121 -7 c111 -6 376
-39 418 -52 13 -4 16 -1 12 10 -8 20 74 222 150 371 33 66 62 123 64 126 1 3
-59 9 -135 12 -76 4 -196 16 -267 27 -158 25 -151 25 -152 -3z"/>
<path d="M11155 5449 c-60 -10 -173 -21 -251 -25 l-140 -7 72 -146 c81 -164
148 -336 139 -358 -4 -12 0 -14 22 -8 65 16 288 44 406 51 70 3 126 10 125 13
-2 3 -31 60 -64 126 -71 139 -157 351 -149 365 8 13 -30 11 -160 -11z"/>
<path d="M12040 5454 c0 -26 -108 -282 -164 -390 l-53 -101 121 -7 c113 -6
377 -39 420 -53 15 -4 18 -1 13 11 -8 21 87 259 158 395 30 57 55 105 55 106
0 1 -62 5 -137 8 -76 4 -196 16 -267 27 -154 24 -146 24 -146 4z"/>
<path d="M0 4875 l0 -459 52 84 c61 101 109 167 196 275 36 44 69 85 74 91 6
8 -10 34 -45 75 -86 103 -144 182 -212 290 l-65 102 0 -458z"/>
<path d="M2105 5305 c-66 -107 -156 -235 -229 -325 l-85 -104 30 -36 c71 -85
209 -271 253 -344 l49 -78 31 52 c41 71 187 271 247 341 27 31 49 60 49 63 0
4 -39 54 -86 113 -71 88 -180 243 -230 329 -10 17 -12 16 -29 -11z"/>
<path d="M4215 5283 c-42 -73 -131 -197 -217 -305 -43 -53 -78 -99 -78 -102 0
-4 37 -52 83 -109 69 -85 190 -258 232 -332 9 -15 16 -9 50 46 57 94 120 181
211 295 l81 100 -84 103 c-46 57 -118 156 -160 220 -42 64 -80 120 -83 124 -4
5 -20 -13 -35 -40z"/>
<path d="M6325 5262 c-46 -78 -166 -242 -238 -325 -57 -66 -62 -49 49 -182 66
-80 224 -310 224 -326 0 -19 17 -8 29 19 22 48 123 194 209 302 47 58 89 110
94 116 6 8 -9 33 -45 75 -79 94 -172 222 -225 310 -26 43 -49 78 -52 78 -3 1
-23 -30 -45 -67z"/>
<path d="M8475 5305 c-66 -107 -156 -235 -229 -325 l-85 -104 30 -36 c71 -85
209 -271 253 -344 l49 -78 31 52 c41 71 187 271 247 341 27 31 49 60 49 63 0
4 -39 54 -86 113 -71 88 -180 243 -230 329 -10 17 -12 16 -29 -11z"/>
<path d="M10585 5283 c-42 -73 -131 -197 -217 -305 -43 -53 -78 -99 -78 -102
0 -4 38 -53 83 -109 68 -84 181 -246 232 -332 9 -15 16 -8 50 46 57 94 120
181 211 295 l81 100 -84 103 c-46 57 -118 156 -160 220 -42 64 -80 120 -83
124 -4 5 -20 -13 -35 -40z"/>
<path d="M12714 5298 c-32 -61 -136 -210 -220 -314 -46 -57 -84 -106 -84 -110
0 -3 22 -32 49 -63 60 -70 206 -270 247 -341 l31 -52 31 51 32 51 0 356 0 355
-26 45 c-34 58 -40 60 -60 22z"/>
<path d="M1045 5010 c-5 -16 -12 -19 -31 -14 -20 5 -26 2 -31 -15 -4 -15 -13
-21 -35 -21 -30 0 -30 0 -15 -24 14 -21 14 -26 2 -36 -19 -16 -19 -34 0 -50
11 -9 13 -16 5 -24 -18 -18 -12 -38 10 -31 15 5 22 0 30 -20 8 -22 15 -26 34
-21 19 5 26 1 31 -14 8 -26 22 -26 30 0 5 15 12 19 30 14 20 -5 27 -1 36 20
10 20 17 24 36 20 25 -7 30 5 11 24 -10 10 -10 17 1 34 10 17 11 25 0 45 -10
18 -10 26 -1 35 19 19 14 28 -13 28 -14 0 -29 8 -35 21 -9 15 -18 19 -35 15
-18 -5 -25 -1 -30 14 -3 11 -10 20 -15 20 -5 0 -12 -9 -15 -20z"/>
<path d="M3172 5013 c-8 -15 -18 -19 -37 -15 -21 3 -27 0 -32 -17 -3 -14 -13
-21 -29 -21 -26 0 -29 -7 -15 -29 6 -9 5 -21 -2 -33 -9 -14 -9 -23 1 -38 9
-15 10 -26 2 -40 -15 -27 -13 -33 10 -27 13 3 24 -3 35 -20 11 -17 22 -22 35
-18 13 4 22 -1 31 -16 11 -22 12 -22 26 -4 7 11 23 20 36 20 13 0 26 9 32 22
7 17 15 21 32 17 26 -7 28 -2 13 26 -7 14 -7 25 2 39 9 15 9 23 -1 35 -9 11
-10 20 -2 35 15 28 14 31 -12 31 -12 0 -28 9 -35 21 -7 11 -21 19 -32 17 -10
-2 -25 6 -33 16 -14 19 -15 19 -25 -1z"/>
<path d="M5290 5011 c-6 -12 -17 -17 -29 -14 -13 3 -24 -2 -33 -16 -7 -12 -23
-21 -35 -21 -25 0 -29 -10 -11 -28 9 -9 9 -17 -1 -35 -11 -20 -10 -28 0 -45
11 -17 11 -24 1 -34 -19 -19 -14 -31 11 -24 17 4 25 0 32 -17 7 -16 18 -21 37
-20 20 1 29 -4 34 -19 l6 -21 17 21 c11 15 23 20 38 16 18 -5 25 -1 33 21 8
20 15 25 30 20 14 -4 20 -2 20 9 0 8 -5 18 -10 21 -7 4 -5 14 5 28 13 18 13
24 1 42 -9 14 -11 27 -5 36 14 22 11 29 -15 29 -16 0 -26 7 -29 21 -5 17 -11
20 -31 17 -19 -4 -27 0 -31 13 -8 24 -22 24 -35 0z"/>
<path d="M7415 5010 c-5 -16 -12 -19 -31 -14 -20 5 -26 2 -31 -15 -4 -15 -13
-21 -35 -21 -30 0 -30 0 -15 -24 14 -21 14 -26 2 -36 -19 -16 -19 -34 0 -50
11 -9 13 -16 5 -24 -18 -18 -12 -38 10 -31 15 5 22 0 30 -20 8 -22 15 -26 34
-21 19 5 26 1 31 -14 8 -26 22 -26 30 0 5 15 12 19 30 14 20 -5 27 -1 36 20
10 20 17 24 36 20 25 -7 30 5 11 24 -10 10 -10 17 1 34 10 17 11 25 0 45 -10
18 -10 26 -1 35 19 19 14 28 -13 28 -14 0 -29 8 -35 21 -9 15 -18 19 -35 15
-18 -5 -25 -1 -30 14 -3 11 -10 20 -15 20 -5 0 -12 -9 -15 -20z"/>
<path d="M9542 5013 c-8 -15 -18 -19 -37 -15 -21 3 -27 0 -32 -17 -3 -14 -13
-21 -29 -21 -26 0 -29 -7 -15 -29 6 -9 5 -21 -2 -33 -9 -14 -9 -23 1 -38 9
-15 10 -26 2 -40 -15 -27 -13 -33 10 -27 13 3 24 -3 35 -20 11 -17 22 -22 35
-18 13 4 22 -1 31 -16 11 -22 12 -22 26 -4 7 11 23 20 36 20 13 0 26 9 32 22
7 17 15 21 32 17 26 -7 28 -2 13 26 -7 14 -7 25 2 39 9 15 9 23 -1 35 -9 11
-10 20 -2 35 15 28 14 31 -12 31 -12 0 -28 9 -35 21 -7 11 -21 19 -32 17 -10
-2 -25 6 -33 16 -14 19 -15 19 -25 -1z"/>
<path d="M11661 5013 c-7 -14 -17 -19 -30 -16 -13 3 -24 -2 -33 -16 -7 -12
-23 -21 -35 -21 -25 0 -29 -10 -11 -28 9 -9 9 -17 -1 -35 -11 -20 -10 -28 0
-45 11 -17 11 -24 1 -34 -19 -19 -14 -31 11 -24 17 4 25 0 32 -17 6 -13 19
-22 32 -22 13 0 29 -9 36 -20 14 -18 15 -18 26 4 9 15 18 20 31 16 13 -4 24 1
35 18 11 17 22 23 35 20 23 -6 25 0 10 27 -8 14 -7 25 2 40 10 15 10 24 1 38
-7 12 -8 24 -2 33 14 22 11 29 -15 29 -16 0 -26 7 -29 21 -4 15 -12 20 -31 17
-16 -2 -30 4 -39 16 -14 19 -15 19 -26 -1z"/>
<path d="M360 4830 c0 -33 -83 -236 -151 -371 -33 -64 -59 -118 -59 -121 0 -3
64 -8 143 -11 78 -4 200 -16 271 -27 71 -11 130 -20 132 -20 2 0 4 9 4 21 0
29 103 278 161 388 27 52 48 95 47 96 -2 1 -70 7 -152 14 -137 10 -318 33
-373 47 -19 5 -23 2 -23 -16z"/>
<path d="M1700 4840 c-53 -12 -272 -38 -388 -46 -56 -4 -101 -9 -100 -13 2 -3
27 -53 57 -111 68 -132 163 -368 155 -382 -5 -8 7 -9 37 -4 192 31 251 38 375
43 l142 6 -53 101 c-61 115 -165 365 -165 395 0 22 -6 23 -60 11z"/>
<path d="M2484 4828 c-3 -36 -70 -201 -142 -348 -37 -74 -68 -138 -70 -141 -1
-3 62 -9 140 -12 123 -5 252 -20 376 -43 25 -5 32 -3 32 10 0 30 91 248 155
374 l63 122 -28 0 c-96 0 -389 32 -500 55 -21 5 -25 1 -26 -17z"/>
<path d="M3820 4839 c-76 -15 -269 -37 -381 -45 l-107 -6 58 -112 c64 -123
152 -335 154 -373 1 -23 4 -24 41 -18 189 30 248 37 373 42 78 3 141 9 140 12
-2 4 -29 56 -60 117 -69 135 -161 361 -154 380 6 16 1 16 -64 3z"/>
<path d="M4606 4837 c9 -25 -116 -330 -185 -445 -17 -29 -31 -54 -31 -56 0 -2
64 -6 143 -9 125 -5 184 -12 376 -43 32 -5 42 -4 37 4 -9 16 80 241 153 383
l59 117 -111 7 c-103 6 -338 35 -415 51 -27 5 -31 4 -26 -9z"/>
<path d="M5880 4829 c-58 -9 -178 -23 -266 -30 l-161 -12 34 -59 c45 -76 122
-251 159 -358 16 -47 29 -86 30 -88 0 -1 59 7 130 18 71 11 193 23 272 27 78
3 142 7 142 9 0 1 -27 56 -60 121 -69 138 -152 338 -152 371 0 12 -6 21 -12
21 -6 -1 -58 -10 -116 -20z"/>
<path d="M6730 4830 c0 -33 -83 -236 -151 -371 -33 -64 -59 -119 -59 -122 0
-4 40 -7 90 -7 79 0 338 -28 428 -46 28 -6 32 -4 32 15 0 41 88 246 208 482 1
3 -66 11 -150 18 -140 11 -318 33 -375 47 -19 5 -23 2 -23 -16z"/>
<path d="M8070 4840 c-53 -12 -272 -38 -388 -46 -56 -4 -101 -9 -100 -13 2 -3
27 -53 57 -111 68 -132 163 -368 155 -382 -5 -8 7 -9 37 -4 192 31 251 38 375
43 l142 6 -54 101 c-58 110 -164 366 -164 397 0 20 -6 21 -60 9z"/>
<path d="M8854 4842 c10 -16 -59 -192 -138 -352 -39 -80 -72 -148 -74 -151 -1
-3 62 -9 140 -12 123 -5 252 -20 376 -43 25 -5 32 -3 32 10 0 30 91 248 155
374 l63 122 -28 0 c-98 0 -391 33 -504 56 -18 4 -26 2 -22 -4z"/>
<path d="M10195 4840 c-70 -15 -277 -39 -386 -46 l-106 -6 62 -122 c68 -134
147 -327 149 -364 1 -22 4 -23 41 -17 189 30 248 37 373 42 78 3 141 9 140 12
-2 4 -29 56 -60 117 -69 135 -161 361 -154 380 6 15 0 16 -59 4z"/>
<path d="M10976 4837 c9 -25 -116 -330 -185 -445 -17 -29 -31 -54 -31 -56 0
-2 64 -6 143 -9 125 -5 184 -12 376 -43 32 -5 42 -4 37 4 -9 16 80 241 153
383 l59 117 -111 7 c-103 6 -338 35 -415 51 -27 5 -31 4 -26 -9z"/>
<path d="M12315 4840 c-70 -15 -277 -39 -386 -46 l-106 -6 63 -122 c63 -124
154 -342 154 -372 0 -13 7 -15 33 -10 123 23 252 38 375 43 78 3 142 7 142 7
0 1 -28 58 -63 126 -69 138 -149 331 -151 367 -1 25 -1 25 -61 13z"/>
<path d="M3146 4648 c-49 -84 -146 -218 -228 -317 l-67 -80 57 -68 c71 -85
200 -262 237 -325 15 -27 30 -50 34 -52 4 -3 44 50 88 117 45 67 117 167 162
222 44 55 79 105 77 111 -2 6 -42 58 -88 115 -74 92 -153 204 -215 307 l-20
33 -37 -63z"/>
<path d="M5256 4628 c-41 -69 -163 -235 -252 -345 l-26 -33 74 -92 c89 -110
160 -209 213 -295 21 -35 41 -63 44 -63 3 1 27 36 53 79 54 89 141 209 222
304 l56 66 -91 113 c-73 92 -161 216 -234 331 -8 13 -19 1 -59 -65z"/>
<path d="M9516 4648 c-49 -84 -146 -218 -228 -317 l-67 -80 57 -68 c71 -85
200 -262 237 -325 15 -27 30 -50 34 -52 4 -3 44 50 88 117 45 67 117 167 162
222 44 55 79 105 77 111 -2 6 -42 58 -88 115 -74 92 -153 204 -215 307 l-20
33 -37 -63z"/>
<path d="M11626 4628 c-42 -70 -161 -233 -252 -346 l-27 -32 60 -73 c81 -98
160 -207 217 -299 26 -43 52 -76 56 -73 4 3 20 26 35 53 37 63 166 240 237
325 l57 69 -52 61 c-96 114 -200 259 -272 381 -8 14 -18 3 -59 -66z"/>
<path d="M982 4586 c-40 -62 -113 -162 -162 -224 l-90 -111 91 -113 c76 -95
216 -294 233 -332 3 -6 11 -3 18 8 117 177 170 252 238 336 l81 100 -78 98
c-87 108 -176 232 -217 305 -16 26 -31 47 -34 47 -4 -1 -40 -52 -80 -114z"/>
<path d="M7352 4586 c-40 -62 -113 -162 -162 -224 l-90 -111 91 -113 c76 -95
216 -294 233 -332 3 -6 11 -3 18 8 117 177 170 252 238 336 l81 100 -78 98
c-87 108 -176 232 -217 305 -16 26 -31 47 -34 47 -4 -1 -40 -52 -80 -114z"/>
<path d="M1 4255 c0 -135 2 -157 13 -142 7 9 25 17 39 17 17 0 28 7 32 20 4
13 15 20 31 20 24 0 24 1 10 22 -14 19 -14 24 -1 38 16 18 11 50 -7 50 -6 0
-3 11 6 25 16 24 16 25 -8 25 -16 0 -27 7 -31 20 -4 14 -15 20 -34 20 -19 0
-31 7 -39 23 -8 17 -11 -16 -11 -138z"/>
<path d="M2111 4392 c-7 -14 -21 -22 -37 -22 -17 0 -28 -7 -31 -20 -3 -13 -14
-20 -29 -20 -26 0 -30 -10 -12 -28 9 -9 7 -16 -7 -32 -17 -18 -17 -21 -2 -38
11 -12 13 -22 7 -32 -15 -23 -12 -30 14 -30 15 0 26 -7 29 -20 3 -13 14 -20
31 -20 16 0 30 -8 37 -22 l12 -23 10 23 c7 15 19 22 38 22 19 0 30 6 34 20 4
13 15 20 31 20 22 0 23 3 14 20 -8 14 -7 25 2 40 10 16 10 24 0 40 -9 15 -10
26 -2 40 9 17 8 20 -14 20 -16 0 -27 7 -31 20 -4 14 -15 20 -34 20 -19 0 -31
7 -38 22 l-10 23 -12 -23z"/>
<path d="M4236 4392 c-6 -16 -15 -22 -38 -22 -21 0 -31 -6 -35 -20 -4 -13 -14
-20 -30 -20 -21 0 -22 -3 -13 -20 8 -14 7 -25 -2 -40 -10 -16 -10 -24 0 -41
10 -15 11 -24 3 -32 -17 -17 -13 -27 13 -27 15 0 26 -7 29 -20 4 -14 14 -20
35 -20 20 0 32 -7 39 -22 l10 -23 12 23 c7 14 21 22 37 22 17 0 28 7 31 20 3
13 14 20 29 20 26 0 30 10 13 27 -8 8 -7 17 3 32 11 17 11 25 0 42 -10 15 -11
24 -3 32 17 17 13 27 -13 27 -15 0 -26 7 -29 20 -3 13 -14 20 -30 20 -14 0
-31 9 -39 22 l-15 23 -7 -23z"/>
<path d="M6356 4392 c-5 -16 -15 -22 -36 -22 -20 0 -31 -6 -35 -20 -4 -13 -15
-20 -32 -20 -22 0 -24 -2 -13 -15 11 -13 11 -20 0 -39 -9 -18 -9 -29 -1 -45 9
-15 9 -27 1 -41 -9 -18 -8 -20 16 -20 17 0 28 -6 31 -20 4 -13 14 -20 31 -20
13 0 31 -8 38 -17 13 -17 15 -17 25 0 5 9 21 17 34 17 14 0 29 9 35 21 8 14
19 19 38 17 23 -3 35 -18 84 -113 65 -124 158 -352 158 -385 0 -16 5 -20 18
-16 62 19 386 56 488 56 44 0 54 -4 67 -24 14 -21 14 -26 2 -36 -19 -16 -19
-34 0 -50 11 -9 13 -16 5 -24 -17 -17 -12 -35 10 -29 15 4 22 -2 30 -22 8 -22
15 -26 34 -21 19 5 26 1 31 -14 8 -26 22 -26 30 0 5 15 12 19 30 14 20 -5 27
-1 37 20 7 16 18 26 28 24 20 -4 23 2 15 25 -4 9 -2 24 5 32 11 13 10 20 0 41
-11 19 -11 27 -2 36 19 19 14 28 -13 28 -14 0 -29 8 -35 21 -9 15 -18 19 -35
15 -18 -5 -25 -1 -30 14 -3 11 -10 20 -15 20 -5 0 -12 -9 -15 -20 -5 -16 -12
-19 -31 -14 -20 5 -26 2 -31 -15 -4 -15 -13 -21 -34 -21 -23 0 -34 9 -56 43
-58 92 -193 408 -193 452 0 22 -1 22 -72 8 -115 -22 -315 -43 -405 -43 -73 0
-84 2 -97 22 -14 19 -14 24 -1 38 16 18 11 50 -7 50 -6 0 -3 11 6 25 16 24 16
25 -8 25 -15 0 -30 8 -36 20 -6 11 -21 20 -34 20 -13 0 -30 10 -38 22 l-15 23
-7 -23z"/>
<path d="M8481 4392 c-7 -14 -21 -22 -37 -22 -17 0 -28 -7 -31 -20 -3 -13 -14
-20 -29 -20 -26 0 -30 -10 -12 -28 9 -9 7 -16 -7 -32 -17 -18 -17 -21 -2 -38
11 -12 13 -22 7 -32 -15 -23 -12 -30 14 -30 15 0 26 -7 29 -20 3 -13 14 -20
31 -20 16 0 30 -8 37 -22 l12 -23 10 23 c7 15 19 22 38 22 19 0 30 6 34 20 4
13 15 20 31 20 22 0 23 3 14 20 -8 14 -7 25 2 40 10 16 10 24 0 40 -9 15 -10
26 -2 40 9 17 8 20 -14 20 -16 0 -27 7 -31 20 -4 14 -15 20 -34 20 -19 0 -31
7 -38 22 l-10 23 -12 -23z"/>
<path d="M10606 4392 c-6 -16 -15 -22 -38 -22 -21 0 -31 -6 -35 -20 -4 -13
-14 -20 -30 -20 -21 0 -22 -3 -13 -20 8 -14 7 -25 -2 -40 -10 -16 -10 -24 0
-41 10 -15 11 -24 3 -32 -17 -17 -13 -27 13 -27 15 0 26 -7 29 -20 4 -14 14
-20 35 -20 20 0 32 -7 39 -22 l10 -23 12 23 c7 14 21 22 37 22 17 0 28 7 31
20 3 13 14 20 29 20 26 0 30 10 13 27 -8 8 -7 17 3 32 11 17 11 25 0 42 -10
15 -11 24 -3 32 17 17 13 27 -13 27 -15 0 -26 7 -29 20 -3 13 -14 20 -30 20
-14 0 -31 9 -39 22 l-15 23 -7 -23z"/>
<path d="M12726 4392 c-5 -16 -15 -22 -36 -22 -20 0 -31 -6 -35 -20 -4 -13
-15 -20 -31 -20 -22 0 -23 -3 -14 -20 8 -14 7 -25 -2 -40 -10 -16 -10 -24 0
-40 9 -15 10 -26 2 -40 -9 -17 -8 -20 14 -20 16 0 27 -7 31 -20 4 -14 15 -20
34 -20 19 0 31 -7 38 -22 l10 -23 12 23 c6 12 21 22 31 22 19 0 20 7 20 120 0
111 -1 120 -19 120 -10 0 -25 10 -33 22 l-15 23 -7 -23z"/>
<path d="M7793 4205 c0 -33 -88 -246 -154 -374 -32 -63 -58 -115 -56 -116 1
-1 74 -7 162 -13 144 -11 322 -34 368 -48 12 -4 17 0 17 15 0 33 78 223 150
369 l67 132 -72 0 c-93 0 -265 17 -386 39 l-96 17 0 -21z"/>
<path d="M574 4205 c-97 -18 -272 -35 -356 -35 -37 0 -68 -2 -68 -5 0 -3 28
-60 61 -127 69 -137 153 -343 151 -371 -1 -12 4 -16 16 -13 62 19 387 56 488
56 44 0 54 -4 67 -24 14 -21 14 -26 2 -36 -19 -16 -19 -34 0 -50 11 -9 13 -16
5 -24 -18 -18 -12 -38 10 -31 15 5 22 0 30 -20 8 -22 15 -26 34 -21 19 5 26 1
31 -14 3 -11 10 -20 15 -20 5 0 12 9 15 20 5 15 12 19 30 14 20 -5 27 -1 37
21 9 21 17 25 35 20 25 -6 30 4 11 23 -9 9 -9 17 1 35 11 20 10 28 0 45 -11
17 -11 24 -1 34 19 19 14 28 -13 28 -14 0 -29 8 -35 21 -9 15 -18 19 -35 15
-18 -5 -25 -1 -30 14 -3 11 -10 20 -15 20 -5 0 -12 -9 -15 -20 -5 -16 -12 -19
-31 -14 -20 5 -26 2 -31 -15 -4 -15 -13 -21 -34 -21 -23 0 -34 9 -56 43 -55
87 -193 406 -193 447 0 24 -19 24 -126 5z"/>
<path d="M1423 4201 c-3 -35 -92 -250 -154 -370 -32 -63 -58 -115 -56 -116 1
-1 74 -7 162 -13 144 -11 322 -34 368 -48 12 -4 17 0 17 15 0 32 78 223 150
367 l65 131 -135 6 c-74 4 -180 14 -235 22 -193 30 -180 30 -182 6z"/>
<path d="M2660 4199 c-63 -10 -177 -21 -252 -25 -76 -4 -138 -8 -138 -9 0 -1
25 -49 55 -106 71 -136 166 -374 158 -395 -5 -12 -2 -15 13 -11 44 14 308 47
420 53 l121 7 -53 101 c-56 108 -164 364 -164 390 0 19 -9 19 -160 -5z"/>
<path d="M3544 4199 c-3 -37 -82 -231 -150 -365 l-61 -121 126 -8 c117 -6 339
-34 404 -50 22 -6 26 -4 22 8 -8 20 74 226 149 372 33 66 62 123 64 126 1 3
-59 9 -135 12 -76 4 -183 14 -238 22 -194 30 -180 30 -181 4z"/>
<path d="M4780 4199 c-63 -10 -176 -21 -251 -25 l-136 -7 61 -121 c72 -141
148 -329 150 -369 1 -23 5 -27 21 -23 64 16 231 38 373 48 89 7 161 15 160 18
-2 3 -31 59 -64 125 -71 139 -157 351 -149 365 8 13 -27 11 -165 -11z"/>
<path d="M5670 4204 c0 -29 -89 -243 -152 -368 l-63 -123 120 -7 c108 -6 375
-39 416 -52 12 -3 17 2 17 18 0 33 86 243 154 378 32 63 58 115 58 116 0 0
-60 4 -132 7 -73 4 -193 16 -266 27 -160 24 -152 24 -152 4z"/>
<path d="M9030 4199 c-63 -10 -177 -21 -253 -25 -76 -4 -136 -10 -135 -13 2
-4 28 -56 59 -116 66 -129 152 -338 152 -372 0 -17 4 -22 16 -19 42 13 309 46
417 52 l121 7 -53 101 c-56 108 -164 364 -164 390 0 19 -9 19 -160 -5z"/>
<path d="M9914 4199 c-3 -38 -83 -233 -150 -365 l-61 -121 126 -8 c117 -6 339
-34 404 -50 22 -6 26 -4 21 8 -8 21 73 222 150 372 33 66 62 123 64 126 1 3
-59 9 -135 12 -76 4 -183 14 -238 22 -194 30 -180 30 -181 4z"/>
<path d="M11150 4199 c-63 -10 -176 -21 -251 -25 l-135 -7 72 -146 c81 -164
148 -336 139 -358 -4 -12 0 -14 17 -10 66 17 232 38 376 49 89 7 161 15 160
18 -2 3 -31 59 -64 125 -71 139 -157 351 -149 365 8 13 -27 11 -165 -11z"/>
<path d="M12040 4204 c0 -26 -108 -282 -164 -390 l-53 -101 121 -7 c112 -6
376 -39 420 -53 15 -4 18 -1 13 11 -8 21 87 259 158 395 30 57 55 105 55 106
0 1 -60 5 -132 8 -73 4 -194 16 -268 27 -162 24 -150 24 -150 4z"/>
<path d="M0 3625 l0 -459 52 84 c61 101 109 167 196 275 36 44 69 85 74 91 6
8 -10 34 -45 75 -86 103 -144 182 -212 290 l-65 102 0 -458z"/>
<path d="M2105 4055 c-66 -107 -156 -235 -229 -325 l-85 -104 30 -36 c71 -85
209 -271 253 -344 l49 -78 31 52 c41 71 187 271 247 341 27 31 49 60 49 63 0
4 -39 54 -86 113 -71 88 -180 243 -230 329 -10 17 -12 16 -29 -11z"/>
<path d="M4215 4033 c-42 -73 -131 -197 -217 -305 -43 -53 -78 -99 -78 -102 0
-4 38 -53 83 -109 68 -84 181 -246 232 -332 9 -15 16 -8 50 46 57 94 120 181
211 295 l81 100 -84 103 c-46 57 -118 156 -160 220 -42 64 -80 120 -83 124 -4
5 -20 -13 -35 -40z"/>
<path d="M6325 4012 c-46 -78 -166 -242 -238 -325 -57 -66 -62 -49 49 -182 66
-80 224 -310 224 -326 0 -19 17 -8 29 19 22 48 123 194 209 302 47 58 89 110
94 116 6 8 -9 33 -45 75 -79 94 -172 222 -225 310 -26 43 -49 78 -52 78 -3 1
-23 -30 -45 -67z"/>
<path d="M8475 4055 c-66 -107 -156 -235 -229 -325 l-85 -104 30 -36 c71 -85
209 -271 253 -344 l49 -78 31 52 c41 71 187 271 247 341 27 31 49 60 49 63 0
4 -39 54 -86 113 -71 88 -180 243 -230 329 -10 17 -12 16 -29 -11z"/>
<path d="M10585 4033 c-42 -73 -131 -197 -217 -305 -43 -53 -78 -99 -78 -102
0 -4 38 -53 83 -109 68 -84 181 -246 232 -332 9 -15 16 -8 50 46 57 94 120
181 211 295 l81 100 -84 103 c-46 57 -118 156 -160 220 -42 64 -80 120 -83
124 -4 5 -20 -13 -35 -40z"/>
<path d="M12714 4048 c-32 -61 -136 -210 -220 -314 -46 -57 -84 -106 -84 -110
0 -3 22 -32 49 -63 60 -70 206 -270 247 -341 l31 -52 31 51 32 51 0 356 0 355
-26 45 c-34 58 -40 60 -60 22z"/>
<path d="M3172 3763 c-8 -15 -18 -19 -37 -15 -21 3 -27 0 -32 -17 -3 -14 -13
-21 -29 -21 -26 0 -29 -7 -15 -29 6 -9 5 -21 -2 -33 -9 -14 -9 -23 1 -38 9
-15 10 -26 2 -40 -14 -27 -13 -32 9 -25 13 4 23 -2 35 -20 12 -18 23 -24 36
-20 13 4 22 -1 31 -16 11 -22 12 -22 26 -3 8 10 24 19 36 19 13 0 26 9 32 23
8 17 16 21 33 17 25 -6 27 -2 12 25 -7 14 -7 25 2 39 9 15 9 23 -1 35 -9 11
-10 20 -2 35 15 28 14 31 -12 31 -12 0 -28 9 -35 21 -7 11 -21 19 -32 17 -10
-2 -25 6 -33 16 -14 19 -15 19 -25 -1z"/>
<path d="M5290 3761 c-6 -12 -17 -17 -29 -14 -13 3 -24 -2 -33 -16 -7 -12 -23
-21 -35 -21 -25 0 -29 -10 -11 -28 9 -9 9 -17 -1 -35 -11 -20 -10 -28 0 -45
11 -17 11 -24 1 -34 -19 -19 -14 -29 11 -23 16 4 25 0 32 -17 7 -17 18 -22 37
-21 20 1 29 -4 34 -19 6 -21 6 -21 24 2 9 12 22 20 28 16 16 -10 39 3 45 26 4
15 11 18 26 13 15 -4 21 -2 21 9 0 8 -4 18 -10 21 -6 4 -4 15 5 29 13 19 13
25 1 42 -10 13 -11 25 -5 35 14 22 11 29 -15 29 -16 0 -26 7 -29 21 -5 17 -11
20 -31 17 -19 -4 -27 0 -31 13 -8 24 -22 24 -35 0z"/>
<path d="M9542 3763 c-8 -15 -18 -19 -37 -15 -21 3 -27 0 -32 -17 -3 -14 -13
-21 -29 -21 -27 0 -28 -3 -14 -30 7 -13 7 -21 0 -25 -14 -8 -13 -55 1 -55 6 0
9 -6 6 -12 -21 -51 -21 -51 0 -44 15 5 25 0 37 -19 12 -18 23 -24 36 -20 13 4
22 -1 31 -16 11 -22 12 -22 26 -3 8 10 24 19 36 19 13 0 26 9 32 23 8 17 16
21 33 17 25 -6 27 -2 12 25 -7 14 -7 25 2 39 9 15 9 23 -1 35 -9 11 -10 20 -2
35 15 28 14 31 -12 31 -12 0 -28 9 -35 21 -7 11 -21 19 -32 17 -10 -2 -25 6
-33 16 -14 19 -15 19 -25 -1z"/>
<path d="M11661 3763 c-7 -14 -17 -19 -30 -16 -13 3 -24 -2 -33 -16 -7 -12
-23 -21 -35 -21 -25 0 -29 -10 -11 -28 9 -9 9 -17 -1 -35 -11 -20 -10 -28 0
-45 11 -17 11 -24 1 -34 -19 -19 -14 -29 11 -23 16 4 24 0 32 -17 6 -14 19
-23 32 -23 12 0 28 -9 36 -19 14 -19 15 -19 26 3 9 15 18 20 31 16 13 -4 24 2
36 20 12 18 22 24 35 20 22 -7 23 -2 9 25 -8 14 -7 25 2 40 10 15 10 24 1 38
-7 12 -8 24 -2 33 14 22 11 29 -15 29 -16 0 -26 7 -29 21 -4 15 -12 20 -31 17
-16 -2 -30 4 -39 16 -14 19 -15 19 -26 -1z"/>
<path d="M360 3580 c0 -33 -83 -236 -151 -371 -33 -64 -59 -118 -59 -121 0 -3
64 -8 143 -11 125 -6 191 -13 365 -42 39 -7 42 -6 42 14 0 31 102 278 161 390
27 52 48 95 47 96 -2 2 -70 8 -152 14 -136 10 -317 33 -373 47 -19 5 -23 2
-23 -16z"/>
<path d="M1729 3596 c-8 -8 -302 -45 -412 -51 -59 -4 -107 -10 -105 -13 2 -4
27 -54 57 -112 68 -132 163 -368 155 -382 -5 -8 7 -9 37 -4 178 30 241 37 370
43 l147 6 -53 101 c-61 115 -165 365 -165 395 0 19 -19 29 -31 17z"/>
<path d="M2484 3578 c-3 -36 -70 -201 -142 -348 -37 -74 -68 -138 -70 -141 -1
-3 62 -9 140 -12 79 -4 201 -16 272 -27 153 -24 147 -24 140 -6 -8 20 78 231
151 374 l63 122 -28 0 c-96 0 -389 32 -500 55 -21 5 -25 1 -26 -17z"/>
<path d="M3820 3589 c-76 -15 -269 -37 -381 -45 l-107 -6 58 -112 c64 -123
152 -335 154 -373 1 -23 4 -24 41 -18 181 29 248 36 373 42 78 3 141 9 140 12
-2 4 -29 56 -60 117 -69 135 -161 361 -154 380 6 16 1 16 -64 3z"/>
<path d="M4606 3587 c9 -25 -117 -330 -185 -445 -17 -29 -31 -54 -31 -56 0 -2
64 -6 143 -9 125 -6 191 -13 376 -43 32 -5 42 -4 37 4 -9 16 80 241 154 385
l59 117 -32 0 c-96 1 -426 38 -505 57 -17 4 -21 2 -16 -10z"/>
<path d="M5945 3590 c-70 -15 -277 -39 -387 -46 l-106 -6 35 -59 c45 -77 122
-252 159 -359 16 -47 29 -86 30 -88 0 -1 59 7 130 18 71 11 193 23 272 27 78
3 142 7 142 9 0 1 -27 56 -60 121 -69 138 -152 338 -152 371 -1 24 -2 24 -63
12z"/>
<path d="M6730 3579 c0 -32 -83 -236 -151 -370 -33 -64 -59 -118 -59 -121 0
-3 64 -8 143 -11 125 -6 191 -13 365 -42 38 -7 42 -6 42 14 0 32 77 221 147
361 34 68 61 125 60 126 -1 1 -70 7 -154 13 -133 10 -278 29 -365 47 -24 5
-28 2 -28 -17z"/>
<path d="M8099 3596 c-8 -8 -302 -45 -412 -51 -59 -4 -107 -10 -105 -13 2 -4
27 -54 57 -112 68 -132 163 -368 155 -382 -5 -8 7 -9 37 -4 178 30 241 37 370
43 l147 6 -54 101 c-58 110 -164 366 -164 397 0 17 -19 26 -31 15z"/>
<path d="M8854 3592 c10 -16 -58 -191 -138 -352 -39 -80 -72 -148 -74 -151 -1
-3 62 -9 140 -12 79 -4 201 -16 272 -27 153 -24 147 -24 140 -6 -8 20 78 231
151 374 l63 122 -32 0 c-96 1 -425 38 -505 57 -16 4 -22 2 -17 -5z"/>
<path d="M10190 3589 c-75 -15 -269 -37 -381 -45 l-106 -6 62 -122 c68 -134
147 -327 149 -364 1 -22 4 -23 41 -17 181 29 248 36 373 42 78 3 141 9 140 12
-2 4 -29 56 -60 117 -69 135 -161 361 -154 380 6 16 1 16 -64 3z"/>
<path d="M10976 3587 c9 -25 -117 -330 -185 -445 -17 -29 -31 -54 -31 -56 0
-2 64 -6 143 -9 125 -5 184 -12 376 -43 32 -5 42 -4 37 4 -9 16 80 241 154
385 l59 117 -32 0 c-96 1 -426 38 -505 57 -17 4 -21 2 -16 -10z"/>
<path d="M12315 3590 c-70 -15 -277 -39 -386 -46 l-106 -6 63 -122 c73 -142
158 -352 150 -372 -7 -18 -13 -18 140 6 71 11 193 23 272 27 78 3 142 7 142 7
0 1 -28 58 -63 126 -69 138 -149 331 -151 367 -1 25 -1 25 -61 13z"/>
<path d="M3146 3398 c-49 -84 -146 -218 -228 -317 l-67 -80 57 -68 c71 -85
200 -262 237 -325 15 -27 31 -50 35 -53 4 -3 29 29 56 72 54 86 170 244 233
317 23 27 40 54 38 61 -3 6 -43 59 -89 116 -74 92 -153 204 -215 307 l-20 33
-37 -63z"/>
<path d="M5256 3378 c-41 -69 -163 -235 -252 -345 l-26 -33 74 -92 c89 -110
160 -209 213 -295 21 -35 41 -63 44 -63 3 1 27 36 53 79 54 89 141 209 222
304 l56 66 -91 113 c-74 92 -154 206 -234 331 -8 13 -19 1 -59 -65z"/>
<path d="M9516 3398 c-49 -84 -146 -218 -228 -317 l-67 -80 57 -68 c71 -85
200 -262 237 -325 15 -27 30 -50 34 -52 4 -3 44 50 88 117 45 67 117 167 162
222 44 55 79 105 77 111 -2 6 -42 58 -88 115 -74 92 -153 204 -215 307 l-20
33 -37 -63z"/>
<path d="M11626 3378 c-42 -70 -161 -233 -252 -346 l-27 -32 60 -73 c81 -98
160 -207 217 -299 26 -43 52 -76 56 -73 4 3 20 26 35 53 37 63 166 240 237
325 l57 69 -52 61 c-96 114 -200 259 -272 381 -8 14 -18 3 -59 -66z"/>
<path d="M982 3336 c-40 -62 -113 -162 -162 -224 l-90 -111 91 -113 c76 -95
216 -294 233 -332 3 -6 11 -3 18 8 117 177 170 252 238 336 l81 100 -78 98
c-87 108 -176 232 -217 305 -16 26 -31 47 -34 47 -4 -1 -40 -52 -80 -114z"/>
<path d="M7352 3336 c-40 -62 -113 -162 -162 -224 l-90 -111 91 -113 c76 -95
216 -294 233 -332 3 -6 11 -3 18 8 117 177 170 252 238 336 l81 100 -78 98
c-87 108 -176 232 -217 305 -16 26 -31 47 -34 47 -4 -1 -40 -52 -80 -114z"/>
<path d="M1 3005 c0 -135 2 -157 13 -142 7 9 25 17 39 17 17 0 28 7 32 21 5
15 14 19 33 17 23 -3 35 -19 84 -113 63 -122 162 -360 160 -388 -1 -13 5 -16
26 -11 15 3 37 7 50 10 60 12 249 33 355 40 64 4 117 7 117 8 0 1 -26 54 -58
117 -63 124 -152 341 -152 371 0 22 1 22 -156 -2 -71 -11 -190 -23 -265 -27
-134 -6 -136 -6 -152 17 -15 21 -15 26 -2 40 16 18 11 50 -7 50 -6 0 -3 11 6
25 16 24 16 25 -8 25 -16 0 -27 7 -31 20 -4 14 -15 20 -34 20 -19 0 -31 7 -39
23 -8 17 -11 -16 -11 -138z"/>
<path d="M2111 3142 c-7 -14 -21 -22 -37 -22 -17 0 -28 -7 -31 -20 -3 -13 -14
-20 -29 -20 -26 0 -30 -10 -12 -28 9 -9 7 -16 -7 -32 -17 -18 -17 -21 -2 -38
11 -12 13 -22 7 -32 -15 -23 -12 -30 14 -30 15 0 26 -7 29 -20 3 -13 14 -20
31 -20 16 0 30 -8 37 -22 l12 -23 10 23 c7 15 19 22 38 22 19 0 30 6 34 20 4
13 15 20 31 20 22 0 23 3 14 20 -8 14 -7 25 2 40 10 16 10 24 0 40 -9 15 -10
26 -2 40 9 17 8 20 -14 20 -16 0 -27 7 -31 20 -4 14 -15 20 -34 20 -19 0 -31
7 -38 22 l-10 23 -12 -23z"/>
<path d="M4236 3142 c-6 -16 -15 -22 -38 -22 -21 0 -31 -6 -35 -20 -4 -13 -14
-20 -30 -20 -21 0 -22 -3 -13 -20 8 -14 7 -25 -2 -40 -10 -16 -10 -24 0 -41
10 -15 11 -24 3 -32 -17 -17 -13 -27 13 -27 15 0 26 -7 29 -20 4 -14 14 -20
35 -20 20 0 32 -7 39 -22 l10 -23 12 23 c7 14 21 22 37 22 17 0 28 7 31 20 3
13 14 20 29 20 26 0 30 10 13 27 -8 8 -7 17 3 32 11 17 11 25 0 42 -10 15 -11
24 -3 32 17 17 13 27 -13 27 -15 0 -26 7 -29 20 -3 13 -14 20 -30 20 -14 0
-31 9 -39 22 l-15 23 -7 -23z"/>
<path d="M6356 3142 c-5 -16 -15 -22 -36 -22 -20 0 -31 -6 -35 -20 -4 -13 -15
-20 -31 -20 -22 0 -23 -2 -14 -21 9 -15 8 -24 -1 -35 -9 -12 -9 -20 1 -38 9
-18 9 -29 1 -45 -11 -19 -9 -21 15 -21 17 0 28 -6 31 -20 4 -13 14 -20 31 -20
13 0 31 -8 38 -17 13 -17 15 -17 25 0 5 9 21 17 35 17 18 0 28 7 31 21 4 16
12 19 37 17 29 -3 36 -12 88 -113 64 -123 158 -352 158 -384 0 -22 -2 -22 73
-6 61 13 248 34 360 41 64 4 117 7 117 8 0 1 -26 54 -58 117 -63 124 -152 341
-152 371 0 22 1 22 -156 -2 -71 -11 -190 -23 -265 -27 -134 -6 -136 -6 -152
17 -15 21 -15 26 -2 40 16 18 11 50 -7 50 -6 0 -3 11 6 25 16 24 16 25 -10 25
-17 0 -28 6 -31 20 -4 14 -14 20 -33 20 -17 0 -33 8 -42 22 l-15 23 -7 -23z"/>
<path d="M8481 3142 c-7 -14 -21 -22 -37 -22 -17 0 -28 -7 -31 -20 -3 -13 -14
-20 -29 -20 -26 0 -30 -10 -12 -28 9 -9 7 -16 -7 -32 -17 -19 -17 -21 -2 -38
15 -17 15 -20 0 -42 -16 -23 -18 -23 -152 -17 -75 4 -181 14 -236 22 -193 30
-180 30 -182 6 -3 -35 -92 -250 -154 -370 -32 -63 -58 -115 -56 -116 1 -1 74
-7 162 -13 144 -11 322 -34 368 -48 12 -4 17 0 17 15 0 33 78 224 150 366 61
122 67 130 96 133 25 2 33 -1 37 -17 3 -14 13 -21 31 -21 16 0 30 -8 37 -22
l12 -23 10 23 c7 15 19 22 38 22 19 0 30 6 34 20 4 13 15 20 31 20 22 0 23 3
14 20 -8 14 -7 25 2 40 10 16 10 24 0 40 -9 15 -10 26 -2 40 9 17 8 20 -14 20
-16 0 -27 7 -31 20 -4 14 -15 20 -34 20 -19 0 -31 7 -38 22 l-10 23 -12 -23z"/>
<path d="M10606 3142 c-6 -16 -15 -22 -38 -22 -21 0 -31 -6 -35 -20 -4 -13
-14 -20 -30 -20 -21 0 -22 -3 -13 -20 8 -14 7 -25 -2 -40 -10 -16 -10 -24 0
-41 10 -15 11 -24 3 -32 -17 -17 -13 -27 13 -27 15 0 26 -7 29 -20 4 -14 14
-20 35 -20 20 0 32 -7 39 -22 l10 -23 12 23 c7 14 21 22 37 22 17 0 28 7 31
20 3 13 14 20 29 20 26 0 30 10 13 27 -8 8 -7 17 3 32 11 17 11 25 0 42 -10
15 -11 24 -3 32 17 17 13 27 -13 27 -15 0 -26 7 -29 20 -3 13 -14 20 -30 20
-14 0 -31 9 -39 22 l-15 23 -7 -23z"/>
<path d="M12726 3142 c-5 -16 -15 -22 -36 -22 -20 0 -31 -6 -35 -20 -4 -13
-15 -20 -31 -20 -22 0 -23 -3 -14 -20 8 -14 7 -25 -2 -40 -10 -16 -10 -24 0
-40 9 -15 10 -26 2 -40 -9 -17 -8 -20 14 -20 16 0 27 -7 31 -20 4 -14 15 -20
34 -20 19 0 31 -7 38 -22 l10 -23 12 23 c6 12 21 22 31 22 19 0 20 7 20 120 0
111 -1 120 -19 120 -10 0 -25 10 -33 22 l-15 23 -7 -23z"/>
<path d="M1423 2951 c-3 -35 -92 -250 -154 -370 -32 -63 -58 -115 -56 -116 1
-1 74 -7 162 -13 144 -11 322 -34 368 -48 12 -4 17 0 17 15 0 32 78 223 150
367 l65 131 -135 6 c-74 4 -180 14 -235 22 -193 30 -180 30 -182 6z"/>
<path d="M2660 2949 c-63 -10 -177 -21 -252 -25 -76 -4 -138 -8 -138 -9 0 -1
25 -49 55 -106 71 -136 166 -374 158 -395 -5 -12 -2 -15 13 -11 43 14 307 47
420 53 l121 7 -53 101 c-56 108 -164 364 -164 390 0 19 -9 19 -160 -5z"/>
<path d="M3544 2947 c-3 -36 -83 -233 -150 -363 l-61 -121 121 -7 c111 -6 376
-39 418 -52 13 -4 16 -1 12 9 -7 20 76 227 150 372 33 66 62 123 64 126 1 3
-59 9 -135 12 -76 4 -196 16 -267 27 -158 25 -151 25 -152 -3z"/>
<path d="M4785 2949 c-60 -10 -173 -21 -251 -25 l-141 -7 61 -121 c72 -141
148 -329 150 -369 1 -25 4 -27 26 -22 63 16 287 44 403 51 70 3 126 10 125 13
-2 3 -31 60 -64 126 -71 139 -157 351 -149 365 8 13 -30 11 -160 -11z"/>
<path d="M5670 2956 c0 -30 -88 -243 -153 -370 l-62 -123 120 -7 c108 -6 375
-39 416 -52 12 -3 17 2 17 18 0 33 86 243 154 378 32 63 58 115 58 116 0 0
-60 4 -132 8 -116 5 -175 12 -375 42 -36 6 -43 4 -43 -10z"/>
<path d="M9030 2949 c-63 -10 -177 -21 -253 -25 -76 -4 -136 -10 -135 -13 2
-4 28 -56 59 -116 66 -129 152 -338 152 -372 0 -17 4 -22 16 -19 41 13 308 46
417 52 l121 7 -53 101 c-56 108 -164 364 -164 390 0 19 -9 19 -160 -5z"/>
<path d="M9914 2947 c-3 -36 -83 -233 -150 -363 l-61 -121 121 -7 c111 -6 376
-39 418 -52 13 -4 16 -1 12 10 -8 20 74 222 150 371 33 66 62 123 64 126 1 3
-59 9 -135 12 -76 4 -196 16 -267 27 -158 25 -151 25 -152 -3z"/>
<path d="M11155 2949 c-60 -10 -173 -21 -251 -25 l-140 -7 72 -146 c81 -164
148 -336 139 -358 -4 -12 0 -14 22 -8 65 16 288 44 406 51 70 3 126 10 125 13
-2 3 -31 60 -64 126 -71 139 -157 351 -149 365 8 13 -30 11 -160 -11z"/>
<path d="M12040 2954 c0 -26 -108 -282 -164 -390 l-53 -101 121 -7 c113 -6
377 -39 420 -53 15 -4 18 -1 13 11 -8 21 87 259 158 395 30 57 55 105 55 106
0 1 -62 5 -137 8 -76 4 -196 16 -267 27 -154 24 -146 24 -146 4z"/>
<path d="M0 2375 l0 -459 52 84 c61 101 109 167 196 275 36 44 69 85 74 91 6
8 -10 34 -45 75 -86 103 -144 182 -212 290 l-65 102 0 -458z"/>
<path d="M2105 2805 c-66 -107 -156 -235 -229 -325 l-85 -104 30 -36 c71 -85
209 -271 253 -344 l49 -78 31 52 c41 71 187 271 247 341 27 31 49 60 49 63 0
4 -39 54 -86 113 -71 88 -180 243 -230 329 -10 17 -12 16 -29 -11z"/>
<path d="M4215 2783 c-42 -73 -131 -197 -217 -305 -43 -53 -78 -99 -78 -102 0
-4 37 -52 83 -109 69 -85 190 -258 232 -332 9 -15 16 -9 50 46 57 94 120 181
211 295 l81 100 -84 103 c-46 57 -118 156 -160 220 -42 64 -80 120 -83 124 -4
5 -20 -13 -35 -40z"/>
<path d="M6325 2762 c-46 -78 -166 -242 -238 -325 -57 -66 -62 -49 49 -182 66
-80 224 -310 224 -326 0 -19 17 -8 29 19 22 48 123 194 209 302 47 58 89 110
94 116 6 8 -9 33 -45 75 -79 94 -172 222 -225 310 -26 43 -49 78 -52 78 -3 1
-23 -30 -45 -67z"/>
<path d="M8475 2805 c-66 -107 -156 -235 -229 -325 l-85 -104 30 -36 c71 -85
209 -271 253 -344 l49 -78 31 52 c41 71 187 271 247 341 27 31 49 60 49 63 0
4 -39 54 -86 113 -71 88 -180 243 -230 329 -10 17 -12 16 -29 -11z"/>
<path d="M10585 2783 c-42 -73 -131 -197 -217 -305 -43 -53 -78 -99 -78 -102
0 -4 38 -53 83 -109 68 -84 181 -246 232 -332 9 -15 16 -8 50 46 57 94 120
181 211 295 l81 100 -84 103 c-46 57 -118 156 -160 220 -42 64 -80 120 -83
124 -4 5 -20 -13 -35 -40z"/>
<path d="M12714 2798 c-32 -61 -136 -210 -220 -314 -46 -57 -84 -106 -84 -110
0 -3 22 -32 49 -63 60 -70 206 -270 247 -341 l31 -52 31 51 32 51 0 356 0 355
-26 45 c-34 58 -40 60 -60 22z"/>
<path d="M1045 2510 c-5 -16 -12 -19 -31 -14 -20 5 -26 2 -31 -15 -4 -15 -13
-21 -35 -21 -30 0 -30 0 -15 -24 14 -21 14 -26 2 -36 -19 -16 -19 -34 0 -50
11 -9 13 -16 5 -24 -18 -18 -12 -38 10 -31 15 5 22 0 30 -20 8 -22 15 -26 34
-21 19 5 26 1 31 -14 3 -11 10 -20 15 -20 5 0 12 9 15 20 5 15 12 19 30 14 20
-5 27 -1 36 20 10 20 17 24 36 20 25 -7 30 5 11 24 -10 10 -10 17 1 34 10 17
11 25 0 45 -10 18 -10 26 -1 35 19 19 14 28 -13 28 -14 0 -29 8 -35 21 -9 15
-18 19 -35 15 -18 -5 -25 -1 -30 14 -3 11 -10 20 -15 20 -5 0 -12 -9 -15 -20z"/>
<path d="M3172 2513 c-8 -15 -18 -19 -37 -15 -21 3 -27 0 -32 -17 -3 -14 -13
-21 -29 -21 -26 0 -29 -7 -15 -29 6 -9 5 -21 -2 -33 -9 -14 -9 -23 1 -38 9
-15 10 -26 2 -40 -15 -27 -13 -33 10 -27 13 3 24 -3 35 -20 11 -17 22 -22 35
-18 13 4 22 -1 31 -16 11 -22 12 -22 26 -4 7 11 23 20 36 20 13 0 26 9 32 22
7 17 15 21 32 17 26 -7 28 -2 13 26 -7 14 -7 25 2 39 9 15 9 23 -1 35 -9 11
-10 20 -2 35 15 28 14 31 -12 31 -12 0 -28 9 -35 21 -7 11 -21 19 -32 17 -10
-2 -25 6 -33 16 -14 19 -15 19 -25 -1z"/>
<path d="M5290 2511 c-6 -12 -17 -17 -29 -14 -13 3 -24 -2 -33 -16 -7 -12 -23
-21 -35 -21 -25 0 -29 -10 -11 -28 9 -9 9 -17 -1 -35 -11 -20 -10 -28 0 -45
11 -17 11 -24 1 -34 -19 -19 -14 -31 11 -24 17 4 25 0 32 -17 7 -16 18 -21 37
-20 20 1 29 -4 34 -19 l6 -21 17 21 c11 15 23 20 38 16 18 -5 25 -1 33 21 8
20 15 25 30 20 14 -4 20 -2 20 9 0 8 -5 18 -10 21 -7 4 -5 14 5 28 13 18 13
24 1 42 -9 14 -11 27 -5 36 14 22 11 29 -15 29 -16 0 -26 7 -29 21 -5 17 -11
20 -31 17 -19 -4 -27 0 -31 13 -8 24 -22 24 -35 0z"/>
<path d="M7415 2510 c-5 -16 -12 -19 -31 -14 -20 5 -26 2 -31 -15 -4 -15 -13
-21 -35 -21 -30 0 -30 0 -15 -24 14 -21 14 -26 2 -36 -19 -16 -19 -34 0 -50
11 -9 13 -16 5 -24 -18 -18 -12 -38 10 -31 15 5 22 0 30 -20 8 -22 15 -26 34
-21 19 5 26 1 31 -14 3 -11 10 -20 15 -20 5 0 12 9 15 20 5 15 12 19 30 14 20
-5 27 -1 36 20 10 20 17 24 36 20 25 -7 30 5 11 24 -10 10 -10 17 1 34 10 17
11 25 0 45 -10 18 -10 26 -1 35 19 19 14 28 -13 28 -14 0 -29 8 -35 21 -9 15
-18 19 -35 15 -18 -5 -25 -1 -30 14 -3 11 -10 20 -15 20 -5 0 -12 -9 -15 -20z"/>
<path d="M9542 2513 c-8 -15 -18 -19 -37 -15 -21 3 -27 0 -32 -17 -3 -14 -13
-21 -29 -21 -26 0 -29 -7 -15 -29 6 -9 5 -21 -2 -33 -9 -14 -9 -23 1 -38 9
-15 10 -26 2 -40 -15 -27 -13 -33 10 -27 13 3 24 -3 35 -20 11 -17 22 -22 35
-18 13 4 22 -1 31 -16 11 -22 12 -22 26 -4 7 11 23 20 36 20 13 0 26 9 32 22
7 17 15 21 32 17 26 -7 28 -2 13 26 -7 14 -7 25 2 39 9 15 9 23 -1 35 -9 11
-10 20 -2 35 15 28 14 31 -12 31 -12 0 -28 9 -35 21 -7 11 -21 19 -32 17 -10
-2 -25 6 -33 16 -14 19 -15 19 -25 -1z"/>
<path d="M11661 2513 c-7 -14 -17 -19 -30 -16 -13 3 -24 -2 -33 -16 -7 -12
-23 -21 -35 -21 -25 0 -29 -10 -11 -28 9 -9 9 -17 -1 -35 -11 -20 -10 -28 0
-45 11 -17 11 -24 1 -34 -19 -19 -14 -31 11 -24 17 4 25 0 32 -17 6 -13 19
-22 32 -22 13 0 29 -9 36 -20 14 -18 15 -18 26 4 9 15 18 20 31 16 13 -4 24 1
35 18 11 17 22 23 35 20 23 -6 25 0 10 27 -8 14 -7 25 2 40 10 15 10 24 1 38
-7 12 -8 24 -2 33 14 22 11 29 -15 29 -16 0 -26 7 -29 21 -4 15 -12 20 -31 17
-16 -2 -30 4 -39 16 -14 19 -15 19 -26 -1z"/>
<path d="M360 2330 c0 -33 -83 -236 -151 -371 -33 -64 -59 -118 -59 -121 0 -3
64 -8 143 -11 78 -4 200 -16 271 -27 71 -11 130 -20 132 -20 2 0 4 9 4 21 0
29 103 278 161 388 27 52 48 95 47 96 -2 1 -70 7 -152 14 -137 10 -318 33
-373 47 -19 5 -23 2 -23 -16z"/>
<path d="M1700 2340 c-53 -12 -272 -38 -388 -46 -56 -4 -101 -9 -100 -13 2 -3
27 -53 57 -111 68 -132 163 -368 155 -382 -5 -8 7 -9 37 -4 192 31 251 38 375
43 l142 6 -53 101 c-61 115 -165 365 -165 395 0 22 -6 23 -60 11z"/>
<path d="M2484 2328 c-3 -36 -70 -201 -142 -348 -37 -74 -68 -138 -70 -141 -1
-3 62 -9 140 -12 123 -5 252 -20 376 -43 25 -5 32 -3 32 10 0 30 91 248 155
374 l63 122 -28 0 c-96 0 -389 32 -500 55 -21 5 -25 1 -26 -17z"/>
<path d="M3820 2339 c-76 -15 -269 -37 -381 -45 l-107 -6 58 -112 c64 -123
152 -335 154 -373 1 -23 4 -24 41 -18 189 30 248 37 373 42 78 3 141 9 140 12
-2 4 -29 56 -60 117 -69 135 -161 361 -154 380 6 16 1 16 -64 3z"/>
<path d="M4606 2337 c9 -25 -116 -330 -185 -445 -17 -29 -31 -54 -31 -56 0 -2
64 -6 143 -9 125 -5 184 -12 376 -43 32 -5 42 -4 37 4 -9 16 80 241 153 383
l59 117 -111 7 c-103 6 -338 35 -415 51 -27 5 -31 4 -26 -9z"/>
<path d="M5880 2329 c-58 -9 -178 -23 -266 -30 l-161 -12 34 -59 c45 -76 122
-251 159 -358 16 -47 29 -86 30 -88 0 -1 59 7 130 18 71 11 193 23 272 27 78
3 142 7 142 9 0 1 -27 56 -60 121 -69 138 -152 338 -152 371 0 12 -6 21 -12
21 -6 -1 -58 -10 -116 -20z"/>
<path d="M6730 2330 c0 -33 -83 -236 -151 -371 -33 -64 -59 -119 -59 -122 0
-4 40 -7 90 -7 79 0 338 -28 428 -46 28 -6 32 -4 32 15 0 41 88 246 208 482 1
3 -66 11 -150 18 -140 11 -318 33 -375 47 -19 5 -23 2 -23 -16z"/>
<path d="M8070 2340 c-53 -12 -272 -38 -388 -46 -56 -4 -101 -9 -100 -13 2 -3
27 -53 57 -111 68 -132 163 -368 155 -382 -5 -8 7 -9 37 -4 192 31 251 38 375
43 l142 6 -54 101 c-58 110 -164 366 -164 397 0 20 -6 21 -60 9z"/>
<path d="M8854 2342 c10 -16 -59 -192 -138 -352 -39 -80 -72 -148 -74 -151 -1
-3 62 -9 140 -12 123 -5 252 -20 376 -43 25 -5 32 -3 32 10 0 30 91 248 155
374 l63 122 -28 0 c-98 0 -391 33 -504 56 -18 4 -26 2 -22 -4z"/>
<path d="M10195 2340 c-70 -15 -277 -39 -386 -46 l-106 -6 62 -122 c68 -134
147 -327 149 -364 1 -22 4 -23 41 -17 189 30 248 37 373 42 78 3 141 9 140 12
-2 4 -29 56 -60 117 -69 135 -161 361 -154 380 6 15 0 16 -59 4z"/>
<path d="M10976 2337 c9 -25 -116 -330 -185 -445 -17 -29 -31 -54 -31 -56 0
-2 64 -6 143 -9 125 -5 184 -12 376 -43 32 -5 42 -4 37 4 -9 16 80 241 153
383 l59 117 -111 7 c-103 6 -338 35 -415 51 -27 5 -31 4 -26 -9z"/>
<path d="M12315 2340 c-70 -15 -277 -39 -386 -46 l-106 -6 63 -122 c63 -124
154 -342 154 -372 0 -13 7 -15 33 -10 123 23 252 38 375 43 78 3 142 7 142 7
0 1 -28 58 -63 126 -69 138 -149 331 -151 367 -1 25 -1 25 -61 13z"/>
<path d="M3146 2148 c-49 -84 -146 -218 -228 -317 l-67 -80 57 -68 c71 -85
200 -262 237 -325 15 -27 30 -50 34 -52 4 -3 44 50 88 117 45 67 117 167 162
222 44 55 79 105 77 111 -2 6 -42 58 -88 115 -74 92 -153 204 -215 307 l-20
33 -37 -63z"/>
<path d="M5256 2128 c-41 -69 -163 -235 -252 -345 l-26 -33 74 -92 c89 -110
160 -209 213 -295 21 -35 41 -63 44 -63 3 1 27 36 53 79 54 89 141 209 222
304 l56 66 -91 113 c-73 92 -161 216 -234 331 -8 13 -19 1 -59 -65z"/>
<path d="M9516 2148 c-49 -84 -146 -218 -228 -317 l-67 -80 57 -68 c71 -85
200 -262 237 -325 15 -27 30 -50 34 -52 4 -3 44 50 88 117 45 67 117 167 162
222 44 55 79 105 77 111 -2 6 -42 58 -88 115 -74 92 -153 204 -215 307 l-20
33 -37 -63z"/>
<path d="M11626 2128 c-42 -70 -161 -233 -252 -346 l-27 -32 60 -73 c81 -98
160 -207 217 -299 26 -43 52 -76 56 -73 4 3 20 26 35 53 37 63 166 240 237
325 l57 69 -52 61 c-96 114 -200 259 -272 381 -8 14 -18 3 -59 -66z"/>
<path d="M982 2086 c-40 -62 -113 -162 -162 -224 l-90 -111 91 -113 c76 -95
216 -294 233 -332 3 -6 11 -3 18 8 117 177 170 252 238 336 l81 100 -78 98
c-87 108 -176 232 -217 305 -16 26 -31 47 -34 47 -4 -1 -40 -52 -80 -114z"/>
<path d="M7352 2086 c-40 -62 -113 -162 -162 -224 l-90 -111 91 -113 c76 -95
216 -294 233 -332 3 -6 11 -3 18 8 117 177 170 252 238 336 l81 100 -78 98
c-87 108 -176 232 -217 305 -16 26 -31 47 -34 47 -4 -1 -40 -52 -80 -114z"/>
<path d="M1 1755 c0 -135 2 -157 13 -142 7 9 25 17 39 17 17 0 28 7 32 20 4
13 15 20 31 20 24 0 24 1 10 22 -14 19 -14 24 -1 38 16 18 11 50 -7 50 -6 0
-3 11 6 25 16 24 16 25 -8 25 -16 0 -27 7 -31 20 -4 14 -15 20 -34 20 -19 0
-31 7 -39 23 -8 17 -11 -16 -11 -138z"/>
<path d="M2111 1892 c-7 -14 -21 -22 -37 -22 -17 0 -28 -7 -31 -20 -3 -13 -14
-20 -29 -20 -26 0 -30 -10 -12 -28 9 -9 7 -16 -7 -32 -17 -18 -17 -21 -2 -38
11 -12 13 -22 7 -32 -15 -23 -12 -30 14 -30 15 0 26 -7 29 -20 3 -13 14 -20
31 -20 16 0 30 -8 37 -22 l12 -23 10 23 c7 15 19 22 38 22 19 0 30 6 34 20 4
13 15 20 31 20 22 0 23 3 14 20 -8 14 -7 25 2 40 10 16 10 24 0 40 -9 15 -10
26 -2 40 9 17 8 20 -14 20 -16 0 -27 7 -31 20 -4 14 -15 20 -34 20 -19 0 -31
7 -38 22 l-10 23 -12 -23z"/>
<path d="M4236 1892 c-6 -16 -15 -22 -38 -22 -21 0 -31 -6 -35 -20 -4 -13 -14
-20 -30 -20 -21 0 -22 -3 -13 -20 8 -14 7 -25 -2 -40 -10 -16 -10 -24 0 -41
10 -15 11 -24 3 -32 -17 -17 -13 -27 13 -27 15 0 26 -7 29 -20 4 -14 14 -20
35 -20 20 0 32 -7 39 -22 l10 -23 12 23 c7 14 21 22 37 22 17 0 28 7 31 20 3
13 14 20 29 20 26 0 30 10 13 27 -8 8 -7 17 3 32 11 17 11 25 0 42 -10 15 -11
24 -3 32 17 17 13 27 -13 27 -15 0 -26 7 -29 20 -3 13 -14 20 -30 20 -14 0
-31 9 -39 22 l-15 23 -7 -23z"/>
<path d="M6356 1892 c-5 -16 -15 -22 -36 -22 -20 0 -31 -6 -35 -20 -4 -13 -15
-20 -32 -20 -22 0 -24 -2 -13 -15 11 -13 11 -20 0 -39 -9 -18 -9 -29 -1 -45 9
-15 9 -27 1 -41 -9 -18 -8 -20 16 -20 17 0 28 -6 31 -20 4 -13 14 -20 31 -20
13 0 31 -8 38 -17 13 -17 15 -17 25 0 5 9 21 17 34 17 14 0 29 9 35 21 8 14
19 19 38 17 23 -3 35 -18 84 -113 65 -124 158 -352 158 -385 0 -16 5 -20 18
-16 62 19 386 56 488 56 44 0 54 -4 67 -24 14 -21 14 -26 2 -36 -19 -16 -19
-34 0 -50 11 -9 13 -16 5 -24 -17 -17 -12 -35 10 -29 15 4 22 -2 30 -22 8 -22
15 -26 34 -21 19 5 26 1 31 -14 8 -26 22 -26 30 0 5 15 12 19 30 14 20 -5 27
-1 37 20 7 16 18 26 28 24 20 -4 23 2 15 25 -4 9 -2 24 5 32 11 13 10 20 0 41
-11 19 -11 27 -2 36 19 19 14 28 -13 28 -14 0 -29 8 -35 21 -9 15 -18 19 -35
15 -18 -5 -25 -1 -30 14 -3 11 -10 20 -15 20 -5 0 -12 -9 -15 -20 -5 -16 -12
-19 -31 -14 -20 5 -26 2 -31 -15 -4 -15 -13 -21 -34 -21 -23 0 -34 9 -56 43
-58 92 -193 408 -193 452 0 22 -1 22 -72 8 -115 -22 -315 -43 -405 -43 -73 0
-84 2 -97 22 -14 19 -14 24 -1 38 16 18 11 50 -7 50 -6 0 -3 11 6 25 16 24 16
25 -8 25 -15 0 -30 8 -36 20 -6 11 -21 20 -34 20 -13 0 -30 10 -38 22 l-15 23
-7 -23z"/>
<path d="M8481 1892 c-7 -14 -21 -22 -37 -22 -17 0 -28 -7 -31 -20 -3 -13 -14
-20 -29 -20 -26 0 -30 -10 -12 -28 9 -9 7 -16 -7 -32 -17 -18 -17 -21 -2 -38
11 -12 13 -22 7 -32 -15 -23 -12 -30 14 -30 15 0 26 -7 29 -20 3 -13 14 -20
31 -20 16 0 30 -8 37 -22 l12 -23 10 23 c7 15 19 22 38 22 19 0 30 6 34 20 4
13 15 20 31 20 22 0 23 3 14 20 -8 14 -7 25 2 40 10 16 10 24 0 40 -9 15 -10
26 -2 40 9 17 8 20 -14 20 -16 0 -27 7 -31 20 -4 14 -15 20 -34 20 -19 0 -31
7 -38 22 l-10 23 -12 -23z"/>
<path d="M10606 1892 c-6 -16 -15 -22 -38 -22 -21 0 -31 -6 -35 -20 -4 -13
-14 -20 -30 -20 -21 0 -22 -3 -13 -20 8 -14 7 -25 -2 -40 -10 -16 -10 -24 0
-41 10 -15 11 -24 3 -32 -17 -17 -13 -27 13 -27 15 0 26 -7 29 -20 4 -14 14
-20 35 -20 20 0 32 -7 39 -22 l10 -23 12 23 c7 14 21 22 37 22 17 0 28 7 31
20 3 13 14 20 29 20 26 0 30 10 13 27 -8 8 -7 17 3 32 11 17 11 25 0 42 -10
15 -11 24 -3 32 17 17 13 27 -13 27 -15 0 -26 7 -29 20 -3 13 -14 20 -30 20
-14 0 -31 9 -39 22 l-15 23 -7 -23z"/>
<path d="M12726 1892 c-5 -16 -15 -22 -36 -22 -20 0 -31 -6 -35 -20 -4 -13
-15 -20 -31 -20 -22 0 -23 -3 -14 -20 8 -14 7 -25 -2 -40 -10 -16 -10 -24 0
-40 9 -15 10 -26 2 -40 -9 -17 -8 -20 14 -20 16 0 27 -7 31 -20 4 -14 15 -20
34 -20 19 0 31 -7 38 -22 l10 -23 12 23 c6 12 21 22 31 22 19 0 20 7 20 120 0
111 -1 120 -19 120 -10 0 -25 10 -33 22 l-15 23 -7 -23z"/>
<path d="M7793 1705 c0 -33 -88 -246 -154 -374 -32 -63 -58 -115 -56 -116 1
-1 74 -7 162 -13 144 -11 322 -34 368 -48 12 -4 17 0 17 15 0 33 78 223 150
369 l67 132 -72 0 c-93 0 -265 17 -386 39 l-96 17 0 -21z"/>
<path d="M574 1705 c-97 -18 -272 -35 -356 -35 -37 0 -68 -2 -68 -5 0 -3 28
-60 61 -127 69 -137 153 -343 151 -371 -1 -12 4 -16 16 -13 62 19 387 56 488
56 44 0 54 -4 67 -24 14 -21 14 -26 2 -36 -19 -16 -19 -34 0 -50 11 -9 13 -16
5 -24 -18 -18 -12 -38 10 -31 15 5 22 0 30 -20 8 -22 15 -26 34 -21 19 5 26 1
31 -14 8 -26 22 -26 30 0 5 15 12 19 30 14 20 -5 27 -1 37 21 9 21 17 25 35
20 25 -6 30 4 11 23 -9 9 -9 17 1 35 11 20 10 28 0 45 -11 17 -11 24 -1 34 19
19 14 28 -13 28 -14 0 -29 8 -35 21 -9 15 -18 19 -35 15 -18 -5 -25 -1 -30 14
-3 11 -10 20 -15 20 -5 0 -12 -9 -15 -20 -5 -16 -12 -19 -31 -14 -20 5 -26 2
-31 -15 -4 -15 -13 -21 -34 -21 -23 0 -34 9 -56 43 -55 87 -193 406 -193 447
0 24 -19 24 -126 5z"/>
<path d="M1423 1701 c-3 -35 -92 -250 -154 -370 -32 -63 -58 -115 -56 -116 1
-1 74 -7 162 -13 144 -11 322 -34 368 -48 12 -4 17 0 17 15 0 32 78 223 150
367 l65 131 -135 6 c-74 4 -180 14 -235 22 -193 30 -180 30 -182 6z"/>
<path d="M2660 1699 c-63 -10 -177 -21 -252 -25 -76 -4 -138 -8 -138 -9 0 -1
25 -49 55 -106 71 -136 166 -374 158 -395 -5 -12 -2 -15 13 -11 44 14 308 47
420 53 l121 7 -53 101 c-56 108 -164 364 -164 390 0 19 -9 19 -160 -5z"/>
<path d="M3544 1699 c-3 -37 -82 -231 -150 -365 l-61 -121 126 -8 c117 -6 339
-34 404 -50 22 -6 26 -4 22 8 -8 20 74 226 149 372 33 66 62 123 64 126 1 3
-59 9 -135 12 -76 4 -183 14 -238 22 -194 30 -180 30 -181 4z"/>
<path d="M4780 1699 c-63 -10 -176 -21 -251 -25 l-136 -7 61 -121 c72 -141
148 -329 150 -369 1 -23 5 -27 21 -23 64 16 231 38 373 48 89 7 161 15 160 18
-2 3 -31 59 -64 125 -71 139 -157 351 -149 365 8 13 -27 11 -165 -11z"/>
<path d="M5670 1704 c0 -29 -89 -243 -152 -368 l-63 -123 120 -7 c108 -6 375
-39 416 -52 12 -3 17 2 17 18 0 33 86 243 154 378 32 63 58 115 58 116 0 0
-60 4 -132 7 -73 4 -193 16 -266 27 -160 24 -152 24 -152 4z"/>
<path d="M9030 1699 c-63 -10 -177 -21 -253 -25 -76 -4 -136 -10 -135 -13 2
-4 28 -56 59 -116 66 -129 152 -338 152 -372 0 -17 4 -22 16 -19 42 13 309 46
417 52 l121 7 -53 101 c-56 108 -164 364 -164 390 0 19 -9 19 -160 -5z"/>
<path d="M9914 1699 c-3 -38 -83 -233 -150 -365 l-61 -121 126 -8 c117 -6 339
-34 404 -50 22 -6 26 -4 21 8 -8 21 73 222 150 372 33 66 62 123 64 126 1 3
-59 9 -135 12 -76 4 -183 14 -238 22 -194 30 -180 30 -181 4z"/>
<path d="M11150 1699 c-63 -10 -176 -21 -251 -25 l-135 -7 72 -146 c81 -164
148 -336 139 -358 -4 -12 0 -14 17 -10 66 17 232 38 376 49 89 7 161 15 160
18 -2 3 -31 59 -64 125 -71 139 -157 351 -149 365 8 13 -27 11 -165 -11z"/>
<path d="M12040 1704 c0 -26 -108 -282 -164 -390 l-53 -101 121 -7 c112 -6
376 -39 420 -53 15 -4 18 -1 13 11 -8 21 87 259 158 395 30 57 55 105 55 106
0 1 -60 5 -132 8 -73 4 -194 16 -268 27 -162 24 -150 24 -150 4z"/>
<path d="M0 1125 l0 -459 52 84 c61 101 109 167 196 275 36 44 69 85 74 91 6
8 -10 34 -45 75 -86 103 -144 182 -212 290 l-65 102 0 -458z"/>
<path d="M2105 1555 c-66 -107 -156 -235 -229 -325 l-85 -104 30 -36 c71 -85
209 -271 253 -344 l49 -78 31 52 c41 71 187 271 247 341 27 31 49 60 49 63 0
4 -39 54 -86 113 -71 88 -180 243 -230 329 -10 17 -12 16 -29 -11z"/>
<path d="M4215 1533 c-42 -73 -131 -197 -217 -305 -43 -53 -78 -99 -78 -102 0
-4 38 -53 83 -109 68 -84 181 -246 232 -332 9 -15 16 -8 50 46 57 94 120 181
211 295 l81 100 -84 103 c-46 57 -118 156 -160 220 -42 64 -80 120 -83 124 -4
5 -20 -13 -35 -40z"/>
<path d="M6325 1512 c-46 -78 -166 -242 -238 -325 -57 -66 -62 -49 49 -182 66
-80 224 -310 224 -326 0 -19 17 -8 29 19 22 48 123 194 209 302 47 58 89 110
94 116 6 8 -9 33 -45 75 -79 94 -172 222 -225 310 -26 43 -49 78 -52 78 -3 1
-23 -30 -45 -67z"/>
<path d="M8475 1555 c-66 -107 -156 -235 -229 -325 l-85 -104 30 -36 c71 -85
209 -271 253 -344 l49 -78 31 52 c41 71 187 271 247 341 27 31 49 60 49 63 0
4 -39 54 -86 113 -71 88 -180 243 -230 329 -10 17 -12 16 -29 -11z"/>
<path d="M10585 1533 c-42 -73 -131 -197 -217 -305 -43 -53 -78 -99 -78 -102
0 -4 38 -53 83 -109 68 -84 181 -246 232 -332 9 -15 16 -8 50 46 57 94 120
181 211 295 l81 100 -84 103 c-46 57 -118 156 -160 220 -42 64 -80 120 -83
124 -4 5 -20 -13 -35 -40z"/>
<path d="M12714 1548 c-32 -61 -136 -210 -220 -314 -46 -57 -84 -106 -84 -110
0 -3 22 -32 49 -63 60 -70 206 -270 247 -341 l31 -52 31 51 32 51 0 356 0 355
-26 45 c-34 58 -40 60 -60 22z"/>
<path d="M3172 1263 c-8 -15 -18 -19 -37 -15 -21 3 -27 0 -32 -17 -3 -14 -13
-21 -29 -21 -26 0 -29 -7 -15 -29 6 -9 5 -21 -2 -33 -9 -14 -9 -23 1 -38 9
-15 10 -26 2 -40 -14 -27 -13 -32 9 -25 13 4 23 -2 35 -20 12 -18 23 -24 36
-20 13 4 22 -1 31 -16 11 -22 12 -22 26 -3 8 10 24 19 36 19 13 0 26 9 32 23
8 17 16 21 33 17 25 -6 27 -2 12 25 -7 14 -7 25 2 39 9 15 9 23 -1 35 -9 11
-10 20 -2 35 15 28 14 31 -12 31 -12 0 -28 9 -35 21 -7 11 -21 19 -32 17 -10
-2 -25 6 -33 16 -14 19 -15 19 -25 -1z"/>
<path d="M5290 1261 c-6 -12 -17 -17 -29 -14 -13 3 -24 -2 -33 -16 -7 -12 -23
-21 -35 -21 -25 0 -29 -10 -11 -28 9 -9 9 -17 -1 -35 -11 -20 -10 -28 0 -45
11 -17 11 -24 1 -34 -19 -19 -14 -29 11 -23 16 4 25 0 32 -17 7 -17 18 -22 37
-21 20 1 29 -4 34 -19 6 -21 6 -21 24 2 9 12 22 20 28 16 16 -10 39 3 45 26 4
15 11 18 26 13 15 -4 21 -2 21 9 0 8 -4 18 -10 21 -6 4 -4 15 5 29 13 19 13
25 1 42 -10 13 -11 25 -5 35 14 22 11 29 -15 29 -16 0 -26 7 -29 21 -5 17 -11
20 -31 17 -19 -4 -27 0 -31 13 -8 24 -22 24 -35 0z"/>
<path d="M9542 1263 c-8 -15 -18 -19 -37 -15 -21 3 -27 0 -32 -17 -3 -14 -13
-21 -29 -21 -27 0 -28 -3 -14 -30 7 -13 7 -21 0 -25 -14 -8 -13 -55 1 -55 6 0
9 -6 6 -12 -21 -51 -21 -51 0 -44 15 5 25 0 37 -19 12 -18 23 -24 36 -20 13 4
22 -1 31 -16 11 -22 12 -22 26 -3 8 10 24 19 36 19 13 0 26 9 32 23 8 17 16
21 33 17 25 -6 27 -2 12 25 -7 14 -7 25 2 39 9 15 9 23 -1 35 -9 11 -10 20 -2
35 15 28 14 31 -12 31 -12 0 -28 9 -35 21 -7 11 -21 19 -32 17 -10 -2 -25 6
-33 16 -14 19 -15 19 -25 -1z"/>
<path d="M11661 1263 c-7 -14 -17 -19 -30 -16 -13 3 -24 -2 -33 -16 -7 -12
-23 -21 -35 -21 -25 0 -29 -10 -11 -28 9 -9 9 -17 -1 -35 -11 -20 -10 -28 0
-45 11 -17 11 -24 1 -34 -19 -19 -14 -29 11 -23 16 4 24 0 32 -17 6 -14 19
-23 32 -23 12 0 28 -9 36 -19 14 -19 15 -19 26 3 9 15 18 20 31 16 13 -4 24 2
36 20 12 18 22 24 35 20 22 -7 23 -2 9 25 -8 14 -7 25 2 40 10 15 10 24 1 38
-7 12 -8 24 -2 33 14 22 11 29 -15 29 -16 0 -26 7 -29 21 -4 15 -12 20 -31 17
-16 -2 -30 4 -39 16 -14 19 -15 19 -26 -1z"/>
<path d="M360 1080 c0 -33 -83 -236 -151 -371 -33 -64 -59 -118 -59 -121 0 -3
64 -8 143 -11 125 -6 191 -13 365 -42 39 -7 42 -6 42 14 0 31 102 278 161 390
27 52 48 95 47 96 -2 2 -70 8 -152 14 -136 10 -317 33 -373 47 -19 5 -23 2
-23 -16z"/>
<path d="M1729 1096 c-8 -8 -302 -45 -412 -51 -59 -4 -107 -10 -105 -13 2 -4
27 -54 57 -112 68 -132 163 -368 155 -382 -5 -8 7 -9 37 -4 178 30 241 37 370
43 l147 6 -53 101 c-61 115 -165 365 -165 395 0 19 -19 29 -31 17z"/>
<path d="M2484 1078 c-3 -36 -70 -201 -142 -348 -37 -74 -68 -138 -70 -141 -1
-3 62 -9 140 -12 79 -4 201 -16 272 -27 153 -24 147 -24 140 -6 -8 20 78 231
151 374 l63 122 -28 0 c-96 0 -389 32 -500 55 -21 5 -25 1 -26 -17z"/>
<path d="M3820 1089 c-76 -15 -269 -37 -381 -45 l-107 -6 58 -112 c64 -123
152 -335 154 -373 1 -23 4 -24 41 -18 181 29 248 36 373 42 78 3 141 9 140 12
-2 4 -29 56 -60 117 -69 135 -161 361 -154 380 6 16 1 16 -64 3z"/>
<path d="M4606 1087 c9 -25 -117 -330 -185 -445 -17 -29 -31 -54 -31 -56 0 -2
64 -6 143 -9 125 -6 191 -13 376 -43 32 -5 42 -4 37 4 -9 16 80 241 154 385
l59 117 -32 0 c-96 1 -426 38 -505 57 -17 4 -21 2 -16 -10z"/>
<path d="M5945 1090 c-70 -15 -277 -39 -387 -46 l-106 -6 35 -59 c45 -77 122
-252 159 -359 16 -47 29 -86 30 -88 0 -1 59 7 130 18 71 11 193 23 272 27 78
3 142 7 142 9 0 1 -27 56 -60 121 -69 138 -152 338 -152 371 -1 24 -2 24 -63
12z"/>
<path d="M6730 1079 c0 -32 -83 -236 -151 -370 -33 -64 -59 -118 -59 -121 0
-3 64 -8 143 -11 125 -6 191 -13 365 -42 38 -7 42 -6 42 14 0 32 77 221 147
361 34 68 61 125 60 126 -1 1 -70 7 -154 13 -133 10 -278 29 -365 47 -24 5
-28 2 -28 -17z"/>
<path d="M8099 1096 c-8 -8 -302 -45 -412 -51 -59 -4 -107 -10 -105 -13 2 -4
27 -54 57 -112 68 -132 163 -368 155 -382 -5 -8 7 -9 37 -4 178 30 241 37 370
43 l147 6 -54 101 c-58 110 -164 366 -164 397 0 17 -19 26 -31 15z"/>
<path d="M8854 1092 c10 -16 -58 -191 -138 -352 -39 -80 -72 -148 -74 -151 -1
-3 62 -9 140 -12 79 -4 201 -16 272 -27 153 -24 147 -24 140 -6 -8 20 78 231
151 374 l63 122 -32 0 c-96 1 -425 38 -505 57 -16 4 -22 2 -17 -5z"/>
<path d="M10190 1089 c-75 -15 -269 -37 -381 -45 l-106 -6 62 -122 c68 -134
147 -327 149 -364 1 -22 4 -23 41 -17 181 29 248 36 373 42 78 3 141 9 140 12
-2 4 -29 56 -60 117 -69 135 -161 361 -154 380 6 16 1 16 -64 3z"/>
<path d="M10976 1087 c9 -25 -117 -330 -185 -445 -17 -29 -31 -54 -31 -56 0
-2 64 -6 143 -9 125 -5 184 -12 376 -43 32 -5 42 -4 37 4 -9 16 80 241 154
385 l59 117 -32 0 c-96 1 -426 38 -505 57 -17 4 -21 2 -16 -10z"/>
<path d="M12315 1090 c-70 -15 -277 -39 -386 -46 l-106 -6 63 -122 c73 -142
158 -352 150 -372 -7 -18 -13 -18 140 6 71 11 193 23 272 27 78 3 142 7 142 7
0 1 -28 58 -63 126 -69 138 -149 331 -151 367 -1 25 -1 25 -61 13z"/>
<path d="M3146 898 c-49 -84 -146 -218 -228 -317 l-67 -80 57 -68 c71 -85 200
-262 237 -325 15 -27 31 -50 35 -53 4 -3 29 29 56 72 54 86 170 244 233 317
23 27 40 54 38 61 -3 6 -43 59 -89 116 -74 92 -153 204 -215 307 l-20 33 -37
-63z"/>
<path d="M5256 878 c-41 -69 -163 -235 -252 -345 l-26 -33 74 -92 c89 -110
160 -209 213 -295 21 -35 41 -63 44 -63 3 1 27 36 53 79 54 89 141 209 222
304 l56 66 -91 113 c-74 92 -154 206 -234 331 -8 13 -19 1 -59 -65z"/>
<path d="M9516 898 c-49 -84 -146 -218 -228 -317 l-67 -80 57 -68 c71 -85 200
-262 237 -325 15 -27 30 -50 34 -52 4 -3 44 50 88 117 45 67 117 167 162 222
44 55 79 105 77 111 -2 6 -42 58 -88 115 -74 92 -153 204 -215 307 l-20 33
-37 -63z"/>
<path d="M11626 878 c-42 -70 -161 -233 -252 -346 l-27 -32 60 -73 c81 -98
160 -207 217 -299 26 -43 52 -76 56 -73 4 3 20 26 35 53 37 63 166 240 237
325 l57 69 -52 61 c-96 114 -200 259 -272 381 -8 14 -18 3 -59 -66z"/>
<path d="M982 836 c-40 -62 -113 -162 -162 -224 l-90 -111 91 -113 c76 -95
216 -294 233 -332 3 -6 11 -3 18 8 117 177 170 252 238 336 l81 100 -78 98
c-87 108 -176 232 -217 305 -16 26 -31 47 -34 47 -4 -1 -40 -52 -80 -114z"/>
<path d="M7352 836 c-40 -62 -113 -162 -162 -224 l-90 -111 91 -113 c76 -95
216 -294 233 -332 3 -6 11 -3 18 8 117 177 170 252 238 336 l81 100 -78 98
c-87 108 -176 232 -217 305 -16 26 -31 47 -34 47 -4 -1 -40 -52 -80 -114z"/>
<path d="M1 505 c0 -135 2 -157 13 -142 7 9 25 17 39 17 17 0 28 7 32 21 5 15
14 19 33 17 23 -3 35 -18 81 -108 30 -58 74 -150 96 -205 l42 -100 277 -3
c153 -1 276 1 274 5 -87 170 -188 410 -188 445 0 22 1 22 -156 -2 -71 -11
-190 -23 -265 -27 -134 -6 -136 -6 -152 17 -15 21 -15 26 -2 40 16 18 11 50
-7 50 -6 0 -3 11 6 25 16 24 16 25 -8 25 -16 0 -27 7 -31 20 -4 14 -15 20 -34
20 -19 0 -31 7 -39 23 -8 17 -11 -16 -11 -138z"/>
<path d="M2111 642 c-7 -14 -21 -22 -37 -22 -17 0 -28 -7 -31 -20 -3 -13 -14
-20 -29 -20 -26 0 -30 -10 -12 -28 9 -9 7 -16 -7 -32 -17 -18 -17 -21 -2 -38
11 -12 13 -22 7 -32 -15 -23 -12 -30 14 -30 15 0 26 -7 29 -20 3 -13 14 -20
31 -20 16 0 30 -8 37 -22 l12 -23 10 23 c7 15 19 22 38 22 19 0 30 6 34 20 4
13 15 20 31 20 22 0 23 3 14 20 -8 14 -7 25 2 40 10 16 10 24 0 40 -9 15 -10
26 -2 40 9 17 8 20 -14 20 -16 0 -27 7 -31 20 -4 14 -15 20 -34 20 -19 0 -31
7 -38 22 l-10 23 -12 -23z"/>
<path d="M4236 642 c-6 -16 -15 -22 -38 -22 -21 0 -31 -6 -35 -20 -4 -13 -14
-20 -30 -20 -21 0 -22 -3 -13 -20 8 -14 7 -25 -2 -40 -10 -16 -10 -24 0 -41
10 -15 11 -24 3 -32 -17 -17 -13 -27 13 -27 15 0 26 -7 29 -20 4 -14 14 -20
35 -20 20 0 32 -7 39 -22 l10 -23 12 23 c7 14 21 22 37 22 17 0 28 7 31 20 3
13 14 20 29 20 26 0 30 10 13 27 -8 8 -7 17 3 32 11 17 11 25 0 42 -10 15 -11
24 -3 32 17 17 13 27 -13 27 -15 0 -26 7 -29 20 -3 13 -14 20 -30 20 -14 0
-31 9 -39 22 l-15 23 -7 -23z"/>
<path d="M6356 642 c-5 -16 -15 -22 -36 -22 -20 0 -31 -6 -35 -20 -4 -13 -15
-20 -31 -20 -22 0 -23 -2 -14 -21 9 -15 8 -24 -1 -35 -9 -12 -9 -20 1 -38 9
-18 9 -29 1 -45 -11 -19 -9 -21 15 -21 17 0 28 -6 31 -20 4 -13 14 -20 31 -20
13 0 31 -8 38 -17 13 -17 15 -17 25 0 5 9 21 17 35 17 18 0 28 7 31 21 4 16
12 19 37 17 28 -3 35 -12 85 -108 30 -58 74 -150 96 -205 l42 -100 277 -3
c153 -1 276 1 274 5 -87 170 -188 410 -188 445 0 22 1 22 -156 -2 -71 -11
-190 -23 -265 -27 -134 -6 -136 -6 -152 17 -15 21 -15 26 -2 40 16 18 11 50
-7 50 -6 0 -3 11 6 25 16 24 16 25 -10 25 -17 0 -28 6 -31 20 -4 14 -14 20
-33 20 -17 0 -33 8 -42 22 l-15 23 -7 -23z"/>
<path d="M8481 642 c-7 -14 -21 -22 -37 -22 -17 0 -28 -7 -31 -20 -3 -13 -14
-20 -29 -20 -26 0 -30 -10 -12 -28 9 -9 7 -16 -7 -32 -17 -19 -17 -21 -2 -38
15 -17 15 -20 0 -42 -16 -23 -18 -23 -152 -17 -75 4 -181 14 -236 22 -193 30
-180 30 -182 6 -3 -31 -88 -242 -144 -353 l-49 -98 277 0 278 0 30 78 c16 42
59 135 95 207 61 122 67 130 96 133 25 2 33 -1 37 -17 3 -14 13 -21 31 -21 16
0 30 -8 37 -22 l12 -23 10 23 c7 15 19 22 38 22 19 0 30 6 34 20 4 13 15 20
31 20 22 0 23 3 14 20 -8 14 -7 25 2 40 10 16 10 24 0 40 -9 15 -10 26 -2 40
9 17 8 20 -14 20 -16 0 -27 7 -31 20 -4 14 -15 20 -34 20 -19 0 -31 7 -38 22
l-10 23 -12 -23z"/>
<path d="M10606 642 c-6 -16 -15 -22 -38 -22 -21 0 -31 -6 -35 -20 -4 -13 -14
-20 -30 -20 -21 0 -22 -3 -13 -20 8 -14 7 -25 -2 -40 -10 -16 -10 -24 0 -41
10 -15 11 -24 3 -32 -17 -17 -13 -27 13 -27 15 0 26 -7 29 -20 4 -14 14 -20
35 -20 20 0 32 -7 39 -22 l10 -23 12 23 c7 14 21 22 37 22 17 0 28 7 31 20 3
13 14 20 29 20 26 0 30 10 13 27 -8 8 -7 17 3 32 11 17 11 25 0 42 -10 15 -11
24 -3 32 17 17 13 27 -13 27 -15 0 -26 7 -29 20 -3 13 -14 20 -30 20 -14 0
-31 9 -39 22 l-15 23 -7 -23z"/>
<path d="M12726 642 c-5 -16 -15 -22 -36 -22 -20 0 -31 -6 -35 -20 -4 -13 -15
-20 -31 -20 -22 0 -23 -3 -14 -20 8 -14 7 -25 -2 -40 -10 -16 -10 -24 0 -40 9
-15 10 -26 2 -40 -9 -17 -8 -20 14 -20 16 0 27 -7 31 -20 4 -14 15 -20 34 -20
19 0 31 -7 38 -22 l10 -23 12 23 c6 12 21 22 31 22 19 0 20 7 20 120 0 111 -1
120 -19 120 -10 0 -25 10 -33 22 l-15 23 -7 -23z"/>
<path d="M1423 451 c-3 -31 -88 -242 -144 -354 l-49 -97 277 0 278 0 30 78
c16 42 59 136 95 208 l65 131 -135 6 c-74 4 -180 14 -235 22 -193 30 -180 30
-182 6z"/>
<path d="M2660 449 c-63 -10 -177 -21 -253 -25 -76 -4 -136 -10 -135 -13 2 -4
28 -56 59 -116 31 -61 73 -152 94 -203 l38 -92 273 0 c151 0 274 2 274 5 0 3
-20 45 -44 93 -51 103 -146 334 -146 356 0 19 -9 19 -160 -5z"/>
<path d="M3544 447 c-2 -33 -81 -227 -140 -345 l-51 -102 277 0 276 0 34 83
c18 45 60 136 94 202 33 66 62 123 64 126 1 3 -59 9 -135 12 -76 4 -196 16
-267 27 -158 25 -151 25 -152 -3z"/>
<path d="M4785 449 c-60 -10 -173 -21 -251 -25 l-141 -7 61 -121 c34 -67 77
-160 96 -208 l34 -88 278 0 278 0 -54 108 c-65 131 -149 339 -141 352 8 13
-30 11 -160 -11z"/>
<path d="M5670 456 c0 -27 -83 -232 -139 -344 -28 -56 -51 -104 -51 -107 0 -3
124 -4 276 -3 l276 3 34 85 c19 47 60 137 92 200 31 63 58 117 60 121 1 3 -57
9 -130 13 -116 5 -175 12 -375 42 -36 6 -43 4 -43 -10z"/>
<path d="M9030 449 c-63 -10 -177 -21 -253 -25 -76 -4 -136 -10 -135 -13 2 -4
28 -56 59 -116 31 -61 73 -152 94 -203 l38 -92 273 0 c151 0 274 2 274 5 0 3
-20 45 -44 93 -51 103 -146 334 -146 356 0 19 -9 19 -160 -5z"/>
<path d="M9914 447 c-2 -33 -81 -227 -140 -345 l-51 -102 277 0 276 0 34 83
c18 45 60 136 94 202 33 66 62 123 64 126 1 3 -59 9 -135 12 -76 4 -196 16
-267 27 -158 25 -151 25 -152 -3z"/>
<path d="M11155 449 c-60 -10 -173 -21 -251 -25 l-141 -7 62 -121 c34 -67 77
-160 96 -208 l34 -88 278 0 277 0 -54 108 c-65 131 -149 339 -141 352 8 13
-30 11 -160 -11z"/>
<path d="M12040 454 c0 -22 -95 -253 -146 -356 -24 -48 -44 -90 -44 -93 0 -3
123 -5 274 -5 l273 0 38 92 c21 51 63 142 94 203 31 60 57 112 59 116 1 3 -59
9 -135 12 -76 4 -196 16 -267 27 -154 24 -146 24 -146 4z"/>
<path d="M0 167 l0 -167 110 0 c61 0 110 3 110 6 0 3 -20 32 -45 65 -25 32
-75 104 -110 160 l-65 102 0 -166z"/>
<path d="M2108 310 c-65 -104 -112 -175 -156 -233 -29 -37 -52 -70 -52 -73 0
-2 102 -4 226 -4 l225 0 -44 58 c-38 49 -139 200 -173 258 -10 17 -12 17 -26
-6z"/>
<path d="M4202 263 c-22 -38 -72 -111 -110 -163 l-70 -95 115 -3 c63 -1 163
-1 224 0 l109 3 -56 75 c-30 41 -81 114 -111 163 -31 48 -57 87 -58 87 -2 0
-21 -30 -43 -67z"/>
<path d="M6325 262 c-22 -37 -73 -111 -112 -164 l-73 -98 225 0 c124 0 225 2
225 5 0 3 -27 42 -61 87 -33 45 -81 117 -107 159 -26 43 -49 78 -52 78 -3 1
-23 -30 -45 -67z"/>
<path d="M8478 310 c-65 -104 -112 -175 -156 -233 -29 -37 -52 -70 -52 -73 0
-2 102 -4 226 -4 l225 0 -44 58 c-38 49 -139 200 -173 258 -10 17 -12 17 -26
-6z"/>
<path d="M10572 263 c-22 -38 -72 -111 -110 -163 l-70 -95 115 -3 c63 -1 163
-1 224 0 l109 3 -56 75 c-30 41 -81 114 -111 163 -31 48 -57 87 -58 87 -2 0
-21 -30 -43 -67z"/>
<path d="M12714 298 c-22 -43 -106 -168 -161 -240 l-44 -58 145 0 146 0 0 116
c0 106 -2 119 -26 160 -34 58 -40 60 -60 22z"/>
<path d="M1046 15 c-4 -10 1 -15 14 -15 13 0 18 5 14 15 -8 19 -20 19 -28 0z"/>
<path d="M3176 23 c-11 -11 -6 -23 9 -23 8 0 15 4 15 9 0 13 -16 22 -24 14z"/>
<path d="M5297 23 c-13 -12 -7 -23 13 -23 13 0 18 5 14 15 -7 16 -17 19 -27 8z"/>
<path d="M7416 15 c-4 -10 1 -15 14 -15 13 0 18 5 14 15 -8 19 -20 19 -28 0z"/>
<path d="M9546 23 c-11 -11 -6 -23 9 -23 8 0 15 4 15 9 0 13 -16 22 -24 14z"/>
<path d="M11666 23 c-11 -11 -6 -23 9 -23 8 0 15 4 15 9 0 13 -16 22 -24 14z"/>
</g>
</svg>
